<?xml version="1.0" standalone="no"?>
<!DOCTYPE svg PUBLIC "-//W3C//DTD SVG 1.1//EN" "http://www.w3.org/Graphics/SVG/1.1/DTD/svg11.dtd" >
<svg xmlns="http://www.w3.org/2000/svg">
<metadata>Generated by IcoMoon</metadata>
<defs>
<font id="dudu" horiz-adv-x="1024">
<font-face units-per-em="1024" ascent="960" descent="-64" />
<missing-glyph horiz-adv-x="1024" />
<glyph unicode="&#x20;" horiz-adv-x="512" d="" />
<glyph unicode="&#xe900;" glyph-name="article" d="M794.748 961.181h-561.547c-73.050 0-132.129-59.077-132.129-132.129v-759.743c0-72.942 59.182-132.129 132.129-132.129h429.418v1.271c108.095 12.388 250.812 141.34 262.986 262.989h1.271v627.61c-0.001 73.050-59.182 132.129-132.13 132.129v0zM646.103 3.249h-16.516v165.162c0 18.21 14.822 33.034 33.034 33.034h196.499c-15.669-81.845-138.59-198.195-213.017-198.195v0zM860.81 267.506h-247.74v-2.332c-23.185-6.030-41.179-24.029-47.217-47.219h-2.327v-214.708h-330.322c-36.529 0-66.061 29.539-66.061 66.061v759.743c0 36.529 29.533 66.061 66.061 66.061h561.547c36.529 0 66.061-29.533 66.061-66.061v-561.546zM439.652 432.669h-132.129c-13.657 0-24.773-11.12-24.773-24.775 0-13.657 11.116-24.779 24.773-24.779h132.129c13.658 0 24.773 11.121 24.773 24.779 0 13.762-11.114 24.775-24.773 24.775v0zM538.746 432.669h-16.516c-13.653 0-24.772-11.12-24.772-24.775 0-13.657 11.118-24.779 24.772-24.779h16.516c13.658 0 24.778 11.121 24.778 24.779 0 13.762-11.119 24.775-24.778 24.775v0zM712.168 597.829h-396.39c-18.207 0-33.029-14.825-33.029-33.034 0-18.211 14.82-33.033 33.029-33.033h396.39c18.208 0 33.029 14.82 33.029 33.033 0.001 18.316-14.819 33.034-33.029 33.034v0zM712.168 762.986h-396.39c-18.207 0-33.029-14.82-33.029-33.029 0-18.211 14.82-33.034 33.029-33.034h396.39c18.208 0 33.029 14.822 33.029 33.034 0.001 18.208-14.819 33.029-33.029 33.029v0z" />
<glyph unicode="&#xe901;" glyph-name="learn" horiz-adv-x="1335" d="M1277.074 617.364v-213.005l51.35-58.778-98.581-85.454-90.091 85.454 54.187 60.326v176.214c-291.278-118.82-370.139-155.742-434.725-184.577-64.599-28.833-111.124-28.687-175.198-4.8-64.065 23.88-354.547 134.005-505.987 205.717-101.065 47.854-107.567 78.181 1.734 118.788 142.639 53.615 363.896 139.472 488.867 186.327 73.983 29.62 113.092 45.782 180.997 12.010 121.249-49.537 383.791-152.389 521.547-208.656 119.931-51.787 39.305-68.816 5.898-89.566v0 0zM773.26 309.184c70.438 28.762 165.413 76.308 268.969 120.2v-352.415c0 0-133.937-140.963-369.383-140.963-253.558 0-390.522 140.963-390.522 140.963v328.938c79.93-32.212 169.681-59.93 278.305-96.723 66.946-23.556 151.897-31.699 212.631 0v0 0z" />
<glyph unicode="&#xe902;" glyph-name="reward" d="M849.835-0.868h-684.983c-57.434 0-104.425 46.991-104.425 104.425v684.983c0 57.434 46.991 104.425 104.425 104.425h684.983c57.434 0 104.425-46.991 104.425-104.425v-684.983c0-57.434-46.991-104.425-104.425-104.425zM719.192 400.915h-155.566v94.777h155.566c31.084 0 56.282 25.199 56.282 56.282s-25.198 56.282-56.282 56.282h-47.389v124.014c0 31.083-25.198 56.282-56.282 56.282s-56.282-25.199-56.282-56.282v-124.014h-94.777v124.014c0 31.083-25.199 56.282-56.282 56.282s-56.282-25.199-56.282-56.282v-124.014h-56.404c-31.083 0-56.282-25.199-56.282-56.282s25.199-56.282 56.282-56.282h155.566v-94.777h-155.565c-31.083 0-56.282-25.198-56.282-56.282s25.199-56.282 56.282-56.282h155.566v-128.522c0-31.084 25.199-56.282 56.282-56.282s56.282 25.198 56.282 56.282v128.522h155.566c31.084 0 56.282 25.198 56.282 56.282s-25.198 56.282-56.282 56.282z" />
<glyph unicode="&#xe903;" glyph-name="feedback" d="M921.795 905.94h-817.665c-56.452 0-102.21-45.764-102.21-102.216v-562.146c0-56.45 45.758-102.209 102.21-102.209h51.1v-153.311l191.643 153.311h574.923c56.446 0 102.205 45.76 102.205 102.209v562.146c0 56.452-45.759 102.216-102.205 102.216zM782.732 343.196h-540.541c-25.334 0-45.868 18.994-45.868 42.419s20.534 42.415 45.868 42.415h540.543c25.329 0 45.867-18.992 45.867-42.415-0.001-23.425-20.538-42.42-45.869-42.42zM782.732 599.112h-540.541c-25.334 0-45.868 18.994-45.868 42.42 0 23.424 20.534 42.416 45.868 42.416h540.543c25.329 0 45.867-18.994 45.867-42.415-0.001-23.427-20.538-42.421-45.869-42.421z" />
<glyph unicode="&#xe904;" glyph-name="clock" d="M896.195 176.581c0-18.875-16.805-34.731-36.815-34.731h-694.755c-20.011 0-36.821 15.856-36.821 34.731 0 7.548 3.2 15.101 7.206 21.143v0l0.795 0.751c1.604 2.267 3.205 3.778 5.604 5.285l67.237 63.421v250.656c0 137.41 101.653 248.39 236.121 278.591v27.934c0 36.994 27.212 69.458 66.432 69.458 39.224 0 66.435-32.464 66.435-69.458v-27.934c134.468-30.201 236.121-141.938 236.121-278.591v-250.656l67.232-63.421c2.404-1.506 4.006-3.019 5.605-5.285l0.8-0.751c5.605-6.042 8.804-13.595 8.804-21.143v0zM726.509 517.838c0 110.981-97.648 202.337-214.51 202.337-116.856 0-214.509-91.356-214.509-202.337v-292.936h428.217v292.936h0.801zM511.999 2.179c-52.023 0-88.844 33.976-88.844 83.803h177.689c0-49.071-36.815-83.803-88.844-83.803v0z" />
<glyph unicode="&#xe905;" glyph-name="comments" d="M805.54 251.453c0.056-0.080 0.128-0.191 0.128-0.191s-155.436-120.428-293.721-225.052c-48.979-37.083-111.874-30.785-111.874 13.996v155.324c-185.38 0-335.674 156.501-335.674 349.557 0 193.048 150.293 349.564 335.674 349.564h223.793c185.389 0 335.675-156.517 335.675-349.564 0.001-123.28-61.452-231.42-154.001-293.634zM609.866 838.567h-195.796c-162.221 0-293.713-131.475-293.713-293.673s131.492-293.673 293.713-293.673h41.962v-142.243c0-31.090 27.958-25.556 27.958-25.556l279.718 209.798h-3.044c85.558 51.262 142.923 144.685 142.923 251.672 0.001 162.197-131.482 293.673-293.719 293.673h-0.001z" />
<glyph unicode="&#xe906;" glyph-name="packetlist" d="M853.333-64h-682.667c-58.004 0-105.026 47.022-105.026 105.026v0 813.949c0 58.004 47.022 105.026 105.026 105.026v0h682.667c58.004 0 105.026-47.022 105.026-105.026v0-813.949c0-58.004-47.022-105.026-105.026-105.026v0zM196.923 907.487l315.077-251.090 315.077 251.090h-630.154zM905.846 854.974c-0.013 15.080-6.425 28.66-16.666 38.173l-0.033 0.030-377.147-300.767-377.147 300.767c-10.275-9.543-16.686-23.123-16.699-38.201v-813.951c0-29.002 23.511-52.513 52.513-52.513v0h682.667c29.002 0 52.513 23.511 52.513 52.513v0 813.949zM643.282 303.59h-105.026v-52.513h105.026c14.501 0 26.256-11.755 26.256-26.256s-11.755-26.256-26.256-26.256v0h-105.026v-78.769c0-14.501-11.755-26.256-26.256-26.256s-26.256 11.755-26.256 26.256v0 78.769h-105.026c-14.501 0-26.256 11.755-26.256 26.256s11.755 26.256 26.256 26.256v0h105.026v52.513h-105.026c-14.501 0-26.256 11.755-26.256 26.256s11.755 26.256 26.256 26.256v0h100.483l-70.709 119.283c-2.198 3.667-3.499 8.091-3.499 12.819 0 9.489 5.238 17.754 12.98 22.063l0.129 0.066c3.766 2.162 8.28 3.437 13.091 3.437 9.602 0 18.018-5.078 22.709-12.695l0.066-0.115 56.031-94.523 56.031 94.523c4.757 7.732 13.173 12.811 22.775 12.811 4.812 0 9.325-1.275 13.222-3.506l-0.13 0.069c7.871-4.374 13.108-12.64 13.108-22.129 0-4.728-1.3-9.151-3.562-12.933l0.064 0.115-70.709-119.283h100.483c14.501 0 26.256-11.755 26.256-26.256s-11.755-26.256-26.256-26.256v0z" />
<glyph unicode="&#xe907;" glyph-name="download" horiz-adv-x="1182" d="M1142.154-64h-1102.769c-21.752 0-39.385 17.633-39.385 39.385v0 315.077c0 21.752 17.633 39.385 39.385 39.385s39.385-17.633 39.385-39.385v0-275.692h1024v275.692c0 21.752 17.633 39.385 39.385 39.385s39.385-17.633 39.385-39.385v0-315.077c0-21.752-17.633-39.385-39.385-39.385v0zM758.823 514.954l-129.969-157.538v563.2c0 21.752-17.633 39.385-39.385 39.385s-39.385-17.633-39.385-39.385v0-561.625l-128.67 155.963c-7.138 7.195-17.031 11.65-27.963 11.65s-20.825-4.454-27.961-11.647l-0.003-0.003c-7.152-7.202-11.572-17.126-11.572-28.081s4.42-20.879 11.575-28.084l-0.002 0.002 194.639-235.953c7.963-6.973 18.461-11.227 29.952-11.227s21.989 4.253 30.005 11.272l-0.053-0.045 194.639 235.953c7.152 7.202 11.572 17.126 11.572 28.081s-4.42 20.879-11.575 28.084l0.002-0.002c-7.135 7.172-17.011 11.61-27.924 11.61s-20.789-4.438-27.922-11.609l-0.002-0.002z" />
<glyph unicode="&#xe908;" glyph-name="section" horiz-adv-x="1342" d="M52.966 960h211.862c29.252 0 52.966-23.713 52.966-52.966s-23.713-52.966-52.966-52.966v0h-211.862c-29.252 0-52.966 23.713-52.966 52.966s23.713 52.966 52.966 52.966v0zM476.69 960h812.138c29.252 0 52.966-23.713 52.966-52.966s-23.713-52.966-52.966-52.966v0h-812.138c-29.252 0-52.966 23.713-52.966 52.966s23.713 52.966 52.966 52.966v0zM52.966 500.966h211.862c29.252 0 52.966-23.713 52.966-52.966s-23.713-52.966-52.966-52.966v0h-211.862c-29.252 0-52.966 23.713-52.966 52.966s23.713 52.966 52.966 52.966v0zM476.69 500.966h812.138c29.252 0 52.966-23.713 52.966-52.966s-23.713-52.966-52.966-52.966v0h-812.138c-29.252 0-52.966 23.713-52.966 52.966s23.713 52.966 52.966 52.966v0zM52.966 41.931h211.862c29.252 0 52.966-23.713 52.966-52.966s-23.713-52.966-52.966-52.966v0h-211.862c-29.252 0-52.966 23.713-52.966 52.966s23.713 52.966 52.966 52.966v0zM476.69 41.931h812.138c29.252 0 52.966-23.713 52.966-52.966s-23.713-52.966-52.966-52.966v0h-812.138c-29.252 0-52.966 23.713-52.966 52.966s23.713 52.966 52.966 52.966v0z" />
<glyph unicode="&#xe909;" glyph-name="delete" d="M424.93 139.995c22.478 0 40.7 18.22 40.7 40.698v488.373c0 22.475-18.221 40.698-40.7 40.698-22.476 0-40.7-18.222-40.7-40.698v-488.373c0-22.478 18.224-40.698 40.7-40.698zM933.674 831.856h-345.946v40.698c0 22.477-18.221 40.698-40.7 40.698h-40.7c-22.476 0-40.7-18.22-40.7-40.698v-40.698h-345.944c-22.478 0-40.7-18.22-40.7-40.698s18.221-40.698 40.7-40.698h61.049v-651.163c0-44.955 36.445-81.396 81.399-81.396h529.093c44.957 0 81.399 36.441 81.399 81.396v651.164h61.049c22.478 0 40.7 18.22 40.7 40.698s-18.222 40.698-40.7 40.698zM791.226 139.995c0-22.477-18.221-40.698-40.7-40.698h-447.694c-22.476 0-40.7 18.22-40.7 40.698v610.466h529.093v-610.466zM628.427 139.995c22.478 0 40.7 18.22 40.7 40.698v488.373c0 22.475-18.221 40.698-40.7 40.698-22.478 0-40.7-18.222-40.7-40.698v-488.373c0-22.478 18.222-40.698 40.7-40.698z" />
<glyph unicode="&#xe90a;" glyph-name="practice" d="M105.196 221.263l539.845 540.554 179.948-180.185-539.845-540.554zM824.99 942.001c11.502 11.53 27.406 18.663 44.977 18.663s33.475-7.133 44.976-18.662l0.001-0.001 89.954-90.073c11.518-11.529 18.641-27.451 18.641-45.036s-7.123-33.507-18.641-45.037l-134.971-135.167-179.948 180.185zM0-64l59.904 240.246 179.988-180.185zM393.846 14.769h630.154v-78.769h-630.154v78.769zM669.538 211.692h354.462v-78.769h-354.462v78.769z" />
<glyph unicode="&#xe90b;" glyph-name="more" horiz-adv-x="231" d="M66.065 960h99.097c36.486 0 66.065-29.578 66.065-66.065v0-99.097c0-36.486-29.578-66.065-66.065-66.065v0h-99.097c-36.486 0-66.065 29.578-66.065 66.065v0 99.097c0 36.486 29.578 66.065 66.065 66.065v0zM66.065 563.613h99.097c36.486 0 66.065-29.578 66.065-66.065v0-99.097c0-36.486-29.578-66.065-66.065-66.065v0h-99.097c-36.486 0-66.065 29.578-66.065 66.065v0 99.097c0 36.486 29.578 66.065 66.065 66.065v0zM66.065 167.226h99.097c36.486 0 66.065-29.578 66.065-66.065v0-99.097c0-36.486-29.578-66.065-66.065-66.065v0h-99.097c-36.486 0-66.065 29.578-66.065 66.065v0 99.097c0 36.486 29.578 66.065 66.065 66.065v0z" />
<glyph unicode="&#xe90c;" d="M248.131 556.652h558.782v-496.695h-558.782v496.695z" />
<glyph unicode="&#xe90d;" glyph-name="set" horiz-adv-x="1026" d="M1006.377 334.072c-3.859 3.007-8.196 5.889-12.746 8.438-22.444 8.28-40.602 22.226-53.581 40.164-13.19 17.979-20.972 40.138-20.972 64.115 0 0.608 0.005 1.214 0.015 1.82-0.004 0.203-0.006 0.551-0.006 0.9 0 25.837 9.159 49.536 24.408 68.025 14.821 18.529 34.547 32.844 57.213 41 7.828 3.354 13.565 8.026 17.82 13.849 4.308 6.193 6.834 13.728 6.834 21.852 0 2.654-0.269 5.244-0.782 7.746-3.327 23.374-9.272 44.682-17.606 64.747-6.022 16.429-15.977 31.986-28.61 44.915-5.329 5.45-12.529 9.1-20.567 9.915-1.26 0.142-2.555 0.216-3.868 0.216-6.262 0-12.128-1.693-17.167-4.646-17.35-8.209-37.883-13.052-59.546-13.052-4.161 0-8.281 0.179-12.352 0.529-24.975 1.392-47.687 12.299-64.354 29.186-17.247 16.094-29.248 37.589-33.302 61.777-1.103 6.42-1.683 13.076-1.683 19.867 0 17.372 3.795 33.858 10.601 48.674 1.74 3.179 3.511 7.729 4.777 12.485 0.686 2.49 1.019 4.807 1.019 7.203 0 5.217-1.58 10.066-4.287 14.093-6.466 10.136-14.308 18.836-23.367 26.077-9.606 7.668-20.329 14.134-31.853 19.096-10.904 4.94-22.779 9.127-35.077 12.258-11.538 2.969-23.096 4.55-35.002 4.676-7.786-0.385-14.603-3.904-19.333-9.298-5.415-5.237-9.976-11.252-13.523-17.891-8.471-22.847-22.846-41.432-41.309-54.678-18.546-13.224-41.245-21.002-65.76-21.002-0.983 0-1.964 0.013-2.941 0.037-0.755-0.032-1.812-0.049-2.874-0.049-23.683 0-45.425 8.307-62.472 22.166-16.98 13.541-30.48 31.099-39.092 51.246-2.765 8.293-6.445 14.716-11.17 20.214-5.192 5.71-12.744 9.327-21.141 9.327-0.71 0-1.414-0.026-2.111-0.077-10.626-0.391-20.801-1.805-30.616-4.147-13.83-2.968-26.727-6.967-39.111-11.971-12.51-4.942-24.669-11.424-35.933-19.118-9.729-6.21-17.849-15.529-22.841-26.566-1.574-3.35-2.401-6.822-2.401-10.487 0-1.86 0.213-3.67 0.616-5.407 1.097-5.855 2.461-11.009 4.151-16.012q0.793-5.804 2.452-21.147c0.523-5.097 0.822-11.014 0.822-17.001s-0.299-11.904-0.881-17.737c-1.266-13.221-3.976-26.032-7.969-38.263-3.53-11.498-10.18-22.436-18.932-31.293-16.597-16.453-38.353-27.742-62.629-31.229-6.329-0.946-12.941-1.446-19.669-1.446-17.934 0-35.037 3.552-50.647 9.991-4.319 1.524-10.475 3.045-16.824 3.967-1.306 0.146-2.196 0.193-3.098 0.193-5.397 0-10.403-1.677-14.525-4.538-8.327-5.328-15.265-12.267-20.489-20.411-6.141-8.964-11.687-18.907-16.286-29.362-4.733-10.633-8.704-21.953-11.736-33.652-2.707-10.91-4.068-21.683-4.068-32.774 0-0.093 0-0.186 0-0.279 0.064-9.49 2.514-18.408 6.779-26.19 3.106-7.031 8.972-12.695 16.239-15.605 23.582-9.736 43.38-23.813 59.38-41.405 16.425-17.273 26.457-40.516 26.457-66.102 0-0.424-0.003-0.847-0.008-1.269 0.001-0.082 0.002-0.255 0.002-0.429 0-25.938-9.841-49.577-25.992-67.388-15.736-18.653-35.599-33.46-58.204-43.071-13.856-5.098-22.975-16.941-23.614-30.995-0.366-3.145-0.573-6.702-0.573-10.307 0-8.076 1.040-15.91 2.994-23.374 3.177-14.519 7.53-27.748 13.048-40.351 5.248-12.213 11.493-23.794 18.65-34.723 4.61-8.304 12.384-15.477 21.762-19.741 5.747-2.661 12.122-4.141 18.843-4.141 4.4 0 8.652 0.635 12.669 1.817 13.632 4.597 29.767 7.715 46.492 8.608 2.407 0.109 4.687 0.16 6.978 0.16 12.4 0 24.452-1.487 35.988-4.292 13.763-2.921 26.508-10.264 36.254-20.491 15.372-15.709 25.6-36.45 27.981-59.52 0.455-4.035 0.694-8.216 0.694-12.452 0-16.616-3.681-32.372-10.272-46.498-4.478-7.757-7.489-17.752-8.004-28.403 0.194-7.004 2.415-13.298 6.078-18.505 6.383-8.475 13.992-15.753 22.615-21.658 10.323-7.373 21.707-13.828 33.757-19.034 11.516-5.067 24.323-9.727 37.477-13.572 12.582-3.857 24.455-5.883 36.757-6.167 0.34-0.005 0.566-0.007 0.792-0.007 8.657 0 16.794 2.229 23.866 6.145 7.312 4.206 13.117 10.882 16.245 18.898 8.817 23.56 23.072 43.087 41.307 57.906 18.209 15.534 41.704 24.867 67.378 24.867 0.161 0 0.322 0 0.482-0.001 0.705 0.019 1.564 0.030 2.425 0.030 25.64 0 49.058-9.518 66.911-25.214 18.415-15.251 32.678-35.121 41.049-57.841l0.304-0.943c2.676-6.632 6.781-12.203 11.96-16.533 4.931-4.673 11.475-7.565 18.694-7.724 11.832 0.212 23.165 1.787 34.011 4.575 12.662 3.002 24.553 7.128 35.865 12.304 10.935 4.969 21.207 10.645 30.965 17.041 7.166 4.49 14.014 10.546 19.738 17.556 5.178 6.943 8.218 15.501 8.218 24.769 0 7.072-1.77 13.73-4.892 19.556-6.647 14.622-10.585 31.97-10.585 50.237 0 5.968 0.42 11.839 1.233 17.583 3.322 23.848 14.487 45.28 30.812 61.535 7.764 8.496 17.624 14.943 28.766 18.532 10.342 3.445 21.879 5.933 33.798 7.126 4.536 0.468 9.016 0.703 13.55 0.703 7.314 0 14.486-0.613 21.465-1.79 10.048-1.572 19.358-3.666 28.434-6.31 4.89-2.185 12.416-3.766 20.289-3.95 8.592 0.464 16.454 2.867 23.355 6.771 9.63 5.229 17.78 12.65 23.841 21.601 7.284 10.226 13.554 21.634 18.42 33.757 4.933 11.933 8.74 24.659 11.197 37.86 1.396 6.909 2.090 13.485 2.090 20.222 0 4.547-0.316 9.020-0.928 13.398-2.578 9.852-8.204 18.642-15.837 25.146zM732.495 356.671c-12.827-29.664-30.084-55.027-51.243-76.538-43.145-43.691-103.087-70.773-169.355-70.773s-126.21 27.082-169.364 70.782c-21.151 21.503-38.408 46.865-50.615 74.931-12.538 29.138-19.471 61.208-19.471 94.897s6.933 65.759 19.45 94.86c24.326 55.687 69.249 100.341 125.145 124.314 28.486 12.393 59.869 19.259 92.857 19.259 0.557 0 1.114-0.002 1.67-0.006 0.333 0.003 0.827 0.005 1.322 0.005 33.26 0 64.918-6.864 93.632-19.253 56.187-23.947 101.259-68.884 125.382-124.958 12.51-29.085 19.443-61.155 19.443-94.844s-6.933-65.759-19.45-94.86z" />
<glyph unicode="&#xe90e;" glyph-name="tag" horiz-adv-x="727" d="M685.67 960h-644.71c-22.622 0-40.96-18.338-40.96-40.96v-962.56c0-0.024 0-0.053 0-0.081 0-11.311 9.169-20.48 20.48-20.48 3.77 0 7.303 1.019 10.337 2.796l322.259 185.292c2.937 1.725 6.47 2.744 10.24 2.744s7.303-1.019 10.337-2.796l322.668-185.292c2.937-1.725 6.47-2.744 10.24-2.744 11.311 0 20.48 9.169 20.48 20.48 0 0.029 0 0.057 0 0.086v962.556c0 0.001 0 0.001 0 0.002 0 22.622-18.338 40.96-40.96 40.96-0.144 0-0.288-0.001-0.431-0.002z" />
<glyph unicode="&#xe90f;" d="M30.826-33.174v62.087h993.391v-62.087h-993.391zM869 556.652v-434.608h62.087v-62.087h-807.13v62.087h62.087v434.608h62.087v-434.608h93.13v434.608h62.087v-434.608h93.13v434.608h62.087v-434.608h93.13v434.608h62.087v-434.608h93.13v434.608h62.087zM512 929.484l511.875-372.522h-1023.658zM512 867.397l-325.739-248.348h651.696z" />
<glyph unicode="&#xe910;" glyph-name="member" horiz-adv-x="827" d="M591.945 426.346c-50.549-32.847-112.38-52.379-178.774-52.379s-128.225 19.532-180.063 53.163c-137.82-65.787-232.588-204.317-233.108-365.037 0-169.196 826.958-166.938 826.958-0.068-0.638 160.915-95.653 299.486-232.537 363.285zM216.335 497.568c25.214-24.524 55.131-44.365 88.249-58.024 33.354-13.726 69.932-21.302 108.28-21.302s74.926 7.577 108.319 21.315c33.078 13.646 62.995 33.488 88.274 58.074 25.053 24.373 45.415 53.547 59.599 86.037 14.039 32.325 21.812 67.955 21.812 105.4s-7.773 73.075-21.794 105.364c-14.229 32.516-34.587 61.687-59.623 86.079-25.254 24.677-55.175 44.588-88.315 58.287-33.344 13.745-69.922 21.333-108.272 21.333s-74.929-7.589-108.315-21.347c-33.090-13.626-63.010-33.47-88.275-58.071-25.065-24.436-45.43-53.679-59.602-86.239-14.039-32.331-21.812-67.961-21.812-105.406s7.773-73.075 21.794-105.364c14.192-32.53 34.556-61.707 59.619-86.075z" />
<glyph unicode="&#xe911;" glyph-name="good" horiz-adv-x="942" d="M942.031 490.838c-0.050 57.029-44.926 103.56-101.292 106.263l-290.019 0.009s38.307 122.336 41.191 137.989c22.655 88.148-15.241 210.278-116.158 223.871-4.9 0.658-10.565 1.033-16.318 1.033-0.345 0-0.69-0.001-1.035-0.004-0.012 0-0.089 0-0.165 0-55.446 0-103.475-31.754-126.895-78.068-2.226-5.343-121.679-381.826-121.679-381.826h-8.65v-556.074c0.156-1.267 0.245-2.734 0.245-4.222s-0.089-2.955-0.262-4.396l556.709 0.174c45.536 5.232 82.072 38.36 92.328 81.654l0.145 0.727c19.36 97.622 90.208 463.395 91.855 472.869zM139.842 499.9h-111.009c0 0 0 0-0.001 0-15.852 0-28.716-12.792-28.833-28.616v-506.656c0-15.924 12.909-28.833 28.833-28.833h110.185c-0.156 1.267-0.245 2.734-0.245 4.222s0.089 2.955 0.262 4.396l-0.017 544.573c-0.125 1.003-0.196 2.165-0.196 3.343 0 2.695 0.372 5.302 1.068 7.774z" />
<glyph unicode="&#xe912;" glyph-name="study" d="M879.59-64h-735.179c-43.503 0-78.769 35.267-78.769 78.769v0 866.462c0 43.503 35.267 78.769 78.769 78.769v0h735.179c43.503 0 78.769-35.267 78.769-78.769v0-866.462c0-43.503-35.267-78.769-78.769-78.769v0zM249.436 881.231h-52.513c-29.002 0-52.513-23.511-52.513-52.513v0-761.436c0-29.002 23.511-52.513 52.513-52.513v0h52.513v866.462zM669.538 881.231h-105.026v-157.538c0-14.501 11.756-26.256 26.256-26.256v0l24.392 52.513 28.121-52.513c14.501 0 26.256 11.756 26.256 26.256v0 157.538zM879.59 828.718c0 29.002-23.511 52.513-52.513 52.513v0h-78.769v-288.821c0-14.501-11.756-26.256-26.256-26.256v0l-106.89 78.769-103.161-78.769c-14.501 0-26.256 11.756-26.256 26.256v0 288.821h-157.538v-866.462h498.872c29.002 0 52.513 23.511 52.513 52.513v0 761.436z" />
<glyph unicode="&#xe913;" glyph-name="sharing" d="M682.656 576l-106.656 164.576 266.656 219.424 53.344-137.152zM576 576h-128l-16.288 40.704 77.313 119.296h5.952l77.313-119.296zM128 822.847l53.344 137.152 266.656-219.424-106.656-164.576zM576 544l128-413.856-192-194.144-192 194.144 128 413.856h128z" />
<glyph unicode="&#xe914;" d="M995.935 115.302l-171.411-148.192c-19.185-18.707-22.815-18.707-42.037 0l-171.007 148.192c-16.694 22.804-27.018 51.2-27.873 81.962l-0.004 0.203c-0.099 1.79-0.155 3.884-0.155 5.994 0 62.087 48.646 112.813 109.902 116.142l0.295 0.013c45.661-1.758 85.439-25.445 109.293-60.769l0.311-0.489c24.955 35.376 64.767 58.832 110.163 61.242l0.358 0.016c61.553-3.341 110.198-54.068 110.198-116.155 0-2.108-0.056-4.203-0.166-6.283l0.013 0.291c0.009-0.542 0.013-1.182 0.013-1.823 0-30.465-10.507-58.478-28.094-80.61l0.203 0.267z" />
<glyph unicode="&#xe915;" d="M995.935 115.302l-171.411-148.192c-19.185-18.707-22.815-18.707-42.037 0l-171.007 148.192c-16.694 22.804-27.018 51.2-27.873 81.962l-0.004 0.203c-0.099 1.79-0.155 3.884-0.155 5.994 0 62.087 48.646 112.813 109.902 116.142l0.295 0.013c45.661-1.758 85.439-25.445 109.293-60.769l0.311-0.489c24.955 35.376 64.767 58.832 110.163 61.242l0.358 0.016c61.553-3.341 110.198-54.068 110.198-116.155 0-2.108-0.056-4.203-0.166-6.283l0.013 0.291c0.009-0.542 0.013-1.182 0.013-1.823 0-30.465-10.507-58.478-28.094-80.61l0.203 0.267zM887.542 246.62c-30.556 0-65.697-37.415-83.854-64.192-18.634 27.511-53.298 64.559-83.854 64.192-35.972-5.241-63.291-35.876-63.291-72.891 0-2.88 0.165-5.721 0.487-8.515l-0.032 0.341c0-48.786 136.233-130.952 136.233-130.952 9.794-11.004 9.831-11.738 20.946 0.367 0 0 136.233 81.432 136.233 130.585 0.259 2.33 0.408 5.032 0.408 7.769 0 37.092-27.256 67.819-62.832 73.245l-0.411 0.052zM510.276 394.079v-1.834c-6.125 0-12.142 0.734-18.341 0.734-213.407-0.206-389.696-158.85-417.594-364.633l-0.242-2.179h-74.133c22.621 194.723 155.24 353.498 333.279 413.837l3.492 1.027c-73.278 50.26-120.726 133.55-120.726 227.922 0 152.161 123.351 275.513 275.513 275.513s275.513-123.351 275.513-275.513c0-145.563-112.885-264.761-255.889-274.824l-0.873-0.049zM491.936 869.834c-111.422 0-201.747-90.325-201.747-201.747s90.325-201.747 201.747-201.747v0 0c111.422 0 201.747 90.325 201.747 201.747s-90.325 201.747-201.747 201.747v0z" />
<glyph unicode="&#xe916;" glyph-name="right" d="M784.738 421.469l-491.618-474.562c-7.101-6.754-16.728-10.908-27.327-10.908s-20.225 4.154-27.344 10.925l0.016-0.016c-6.972 6.648-11.308 16.007-11.308 26.38s4.335 19.732 11.293 26.365l0.015 0.013 464.329 448.333-464.252 448.333c-6.972 6.648-11.308 16.007-11.308 26.38s4.335 19.732 11.293 26.365l0.015 0.013c7.101 6.754 16.728 10.908 27.327 10.908s20.225-4.154 27.344-10.925l-0.016 0.016 491.541-474.562c7.068-6.659 11.468-16.081 11.468-26.531s-4.4-19.872-11.45-26.513l-0.018-0.018z" />
<glyph unicode="&#xe917;" d="M692.706 417.009v-162.635c0-76.016-73.035-137.668-163.147-137.668h-65.235c-90.112 0-163.147 61.651-163.147 137.668v162.635c0 9.879 99.689-78.306 195.765-82.582 99.599-4.458 195.765 90.142 195.765 82.582zM512 749.688l271.631-120.982-271.631-120.982-271.631 120.982z" />
<glyph unicode="&#xe918;" glyph-name="chat" horiz-adv-x="1105" d="M966.602 960h-828.58c-76.722-2.211-138.074-64.934-138.074-141.987 0-1.355 0.019-2.705 0.057-4.050l-0.004-546.308c0-80.625 63.204-154.773 141.149-154.773h191.846c11.981-0.049 22.842-4.808 30.834-12.52 50.461-49.345 178.656-159.003 178.656-159.003 6.7-7.147 11.614-7.147 18.537 0 0 0 101.395 89.335 173.756 158.793 7.979 7.699 18.839 12.458 30.811 12.507h197.44c77.945 0 141.149 74.148 141.149 154.773v546.729c0.034 1.151 0.053 2.506 0.053 3.865 0 76.895-61.103 139.52-137.403 141.968zM262.198 459.055c-0.066 0-0.145 0-0.223 0-38.237 0-69.234 30.997-69.234 69.234s30.997 69.234 69.234 69.234c38.237 0 69.234-30.997 69.234-69.234 0 0 0 0 0 0 0-38.159-30.87-69.107-68.999-69.234zM538.242 459.055c-0.066 0-0.145 0-0.223 0-38.237 0-69.234 30.997-69.234 69.234s30.997 69.234 69.234 69.234c38.237 0 69.234-30.997 69.234-69.234 0 0 0 0 0 0 0-38.159-30.87-69.107-68.999-69.234zM814.287 459.055c-0.066 0-0.145 0-0.223 0-38.237 0-69.234 30.997-69.234 69.234s30.997 69.234 69.234 69.234c38.237 0 69.234-30.997 69.234-69.234 0 0 0 0 0 0 0-38.159-30.87-69.107-68.999-69.234z" />
<glyph unicode="&#xe919;" glyph-name="like" horiz-adv-x="1175" d="M844.483 960c-103.942-0.341-196.488-48.836-256.541-124.332-61.294 76.033-154.444 124.797-258.984 124.797-181.679 0-328.958-147.28-328.958-328.958 0-0.163 0-0.327 0-0.49 0-294.392 500.956-691.022 587.425-695.016 75.66-7.049 587.425 417.777 587.425 685.173 0.001 0.372 0.002 0.813 0.002 1.253 0 183.92-147.049 333.494-329.991 337.567z" />
<glyph unicode="&#xe91a;" glyph-name="time" d="M512 960c-282.77 0-512-229.23-512-512s229.23-512 512-512c282.77 0 512 229.23 512 512s-229.23 512-512 512zM664.462 295.538c-6.18-5.508-14.374-8.874-23.354-8.874-10.226 0-19.432 4.365-25.858 11.332l-122.902 124.145c-8.001 6.907-13.034 17.062-13.034 28.394 0 0.127 0.001 0.254 0.002 0.38v305.112c-0.132 1.105-0.207 2.385-0.207 3.683 0 18.166 14.726 32.892 32.892 32.892s32.892-14.726 32.892-32.892c0-1.298-0.075-2.578-0.221-3.836l0.014-294.842 117.295-117.088c6.992-6.277 11.37-15.344 11.37-25.435 0-8.86-3.376-16.932-8.912-22.999z" />
<glyph unicode="&#xe91b;" d="M512 357.647l-391.529 207.269v-267.505c0-16.633-13.485-30.118-30.118-30.118s-30.118 13.485-30.118 30.118v0 299.4l-60.235 31.894 512 271.059 512-271.059zM120.471 628.706l391.529-210.824 391.529 210.824-391.529 210.824z" />
<glyph unicode="&#xe91c;" d="M962.56 10.606c0-32.183-26.331-58.514-58.514-58.514h-778.24c-32.183 0-58.514 26.331-58.514 58.514v874.789c0 32.183 26.331 58.514 58.514 58.514h778.24c32.183 0 58.514-26.331 58.514-58.514v-874.789z" />
<glyph unicode="&#xe91d;" d="M962.56 885.394c0 32.183-26.331 58.514-58.514 58.514h-778.24c-32.183 0-58.514-26.331-58.514-58.514v-149.211c90.697-152.137 257.463-228.206 447.634-228.206s356.937 76.069 447.634 228.206v149.211z" />
<glyph unicode="&#xe91e;" d="M377.417 525.531c0-76.069 61.44-137.509 137.509-137.509s137.509 61.44 137.509 137.509-61.44 137.509-137.509 137.509c-76.069 0-137.509-61.44-137.509-137.509v0z" />
<glyph unicode="&#xe91f;" d="M574.903 493.349c5.851 0 10.24-4.389 10.24-11.703 0-5.851-4.389-11.703-10.24-11.703v0h-48.274v-26.331c0-5.851-4.389-10.24-10.24-10.24s-10.24 4.389-10.24 10.24v0 26.331h-49.737c-5.851 0-10.24 4.389-10.24 11.703 0 5.851 4.389 11.703 10.24 11.703v0h49.737v21.943h-49.737c-5.851 0-10.24 4.389-10.24 11.703 0 5.851 4.389 11.703 10.24 11.703v0h49.737l-49.737 59.977c-4.389 4.389-4.389 10.24-1.463 16.091 4.389 4.389 10.24 4.389 14.629 1.463l45.349-57.051 45.349 54.126c4.389 4.389 11.703 2.926 14.629-1.463 4.389-4.389 2.926-11.703-1.463-16.091v0l-48.274-58.514h48.274c5.851 0 10.24-4.389 10.24-11.703 0-5.851-4.389-11.703-10.24-11.703v0h-46.811v-21.943l48.274 1.463z" />
<glyph unicode="&#xe920;" glyph-name="go" horiz-adv-x="819" d="M795.76 491l-716.944 460.79c-7.827 5.119-17.412 8.164-27.709 8.164-28.226 0-51.108-22.882-51.108-51.108 0-0.056 0-0.112 0-0.167v-921.571c0-0.047 0-0.103 0-0.159 0-28.226 22.882-51.108 51.108-51.108 10.297 0 19.882 3.045 27.905 8.284l716.748 461.696c14.307 9.219 23.646 25.070 23.646 43.103s-9.339 33.884-23.445 42.981z" />
<glyph unicode="&#xe921;" glyph-name="full" d="M998.359 960h-330.856c-20.679 0-27.709-19.231-10.753-36.187l104.633-104.633-192.103-192.103c-5.215-5.327-8.433-12.627-8.433-20.679s3.218-15.351 8.438-20.684l78.987-78.987c5.327-5.215 12.627-8.433 20.679-8.433s15.351 3.218 20.684 8.438l194.166 194.166 104.633-104.633c17.163-17.163 36.187-10.753 36.187 10.753v329.616c-1.201 13.153-12.177 23.377-25.541 23.377-0.253 0-0.506-0.004-0.758-0.011zM32.052-64h328.582c20.679 0 27.709 23.367 10.753 41.357l-104.633 105.874 191.897 194.378c5.215 5.327 8.433 12.627 8.433 20.679s-3.218 15.351-8.438 20.684l-78.987 78.987c-5.327 5.215-12.627 8.433-20.679 8.433s-15.351-3.218-20.684-8.438l-191.064-193.132-105.874 104.426c-20.679 17.163-41.357 9.719-41.357-10.96v-328.168c1.794-17.389 14.941-31.24 31.826-34.088zM1024.62-38.359v330.856c0 20.679-19.231 27.709-36.187 10.753l-104.633-104.633-192.103 192.103c-5.327 5.215-12.627 8.433-20.679 8.433s-15.351-3.218-20.684-8.438l-78.987-78.987c-5.215-5.327-8.433-12.627-8.433-20.679s3.218-15.351 8.438-20.684l193.753-193.546-103.393-104.633c-17.163-17.163-10.753-36.187 10.753-36.187h328.168c13.148 1.206 23.367 12.18 23.367 25.54 0 0.036 0 0.071 0 0.107zM0 927.948v-328.582c0-20.679 23.367-27.709 41.357-10.753l105.874 104.633 194.171-192.103c5.327-5.215 12.627-8.433 20.679-8.433s15.351 3.218 20.684 8.438l78.987 78.987c5.215 5.327 8.433 12.627 8.433 20.679s-3.218 15.351-8.438 20.684l-192.925 191.271 104.426 105.874c17.163 19.231 10.753 41.357-10.753 41.357h-328.375c-17.389-1.794-31.24-14.941-34.088-31.826z" />
<glyph unicode="&#xe922;" d="M238.2 448v-120.471c-0.173-3.536-0.271-7.68-0.271-11.847 0-143.048 115.964-259.012 259.012-259.012s259.012 115.964 259.012 259.012c0 4.167-0.099 8.311-0.293 12.429l0.022-0.582v120.471h57.494v-120.471c0.211-4.322 0.332-9.387 0.332-14.479 0-174.835-141.732-316.567-316.567-316.567s-316.567 141.732-316.567 316.567c0 5.093 0.12 10.156 0.358 15.191l-0.027-0.712v120.471h57.494z" />
<glyph unicode="&#xe923;" d="M270.222 675.556l257.962-142.222 225.593 142.222c31.419 0 56.889-25.47 56.889-56.889v0-512c0-31.419-25.47-56.889-56.889-56.889v0h-483.556c-31.419 0-56.889 25.47-56.889 56.889v0 512c0 31.419 25.47 56.889 56.889 56.889v0z" />
<glyph unicode="&#xe924;" d="M839.111-64h-654.222c-62.838 0-113.778 50.94-113.778 113.778v0 796.444c0 62.838 50.94 113.778 113.778 113.778v0h654.222c62.838 0 113.778-50.94 113.778-113.778v0-796.444c0-62.838-50.94-113.778-113.778-113.778v0zM213.333 903.111l312.889-243.541 284.444 243.541h-597.333zM896 846.222c-0.029 16.334-6.971 31.041-18.056 41.354l-0.034 0.032-351.687-297.387-380.131 297.387c-11.122-10.343-18.066-25.052-18.091-41.382v-796.449c0-31.419 25.47-56.889 56.889-56.889v0h654.222c31.419 0 56.889 25.47 56.889 56.889v0 796.444z" />
<glyph unicode="&#xe925;" d="M668.444 305.778h-113.778v-56.889h113.778c15.709 0 28.444-12.736 28.444-28.444s-12.736-28.444-28.444-28.444v0h-113.778v-85.333c0-15.709-12.736-28.444-28.444-28.444s-28.444 12.736-28.444 28.444v0 85.333h-113.778c-15.709 0-28.444 12.736-28.444 28.444s12.736 28.444 28.444 28.444v0h113.778v56.889h-113.778c-15.709 0-28.444 12.736-28.444 28.444s12.736 28.444 28.444 28.444v0h108.857l-76.601 129.138c-2.388 3.971-3.799 8.764-3.799 13.887 0 10.273 5.68 19.221 14.070 23.873l0.14 0.071c4.099 2.362 9.013 3.756 14.253 3.756 10.342 0 19.417-5.428 24.531-13.59l0.071-0.121 60.7-102.4 60.7 102.4c5.184 8.283 14.26 13.711 24.602 13.711 5.24 0 10.154-1.393 14.393-3.83l-0.141 0.074c8.53-4.723 14.21-13.67 14.21-23.944 0-5.122-1.412-9.916-3.868-14.011l0.069 0.123-76.601-129.138h108.857c15.709 0 28.444-12.736 28.444-28.444s-12.736-28.444-28.444-28.444v0z" />
<glyph unicode="&#xe926;" glyph-name="user" horiz-adv-x="950" d="M483.042 348.557c0.073 0 0.16 0 0.246 0 168.913 0 305.845 136.931 305.845 305.845s-136.931 305.845-305.845 305.845c-168.913 0-305.845-136.931-305.845-305.845 0-0.087 0-0.173 0-0.26 0.28-168.651 136.934-305.305 305.571-305.585zM483.042 886.065c128.080 0 231.91-103.829 231.91-231.91s-103.829-231.91-231.91-231.91c-128.080 0-231.91 103.829-231.91 231.91 0.14 128.024 103.886 231.769 231.896 231.909zM701.15 330.567c-44.361 16.266-86.997 1.972-128.154-11.83-26.401-10.81-56.977-17.884-88.962-19.683-33.935 2.345-64.796 9.016-93.86 19.456-46.869 13.535-96.159 28.322-141.506 11.81-144.963-56.705-246.247-194.284-248.665-355.823-0.004-20.714 16.547-37.265 36.964-37.265s36.968 16.551 36.968 36.968c2.753 130.45 83.97 241.258 198.237 287.342 24.061 8.891 62.261-2.446 99.475-13.29 32.962-11.865 71.064-19.646 110.689-21.649 42.165 1.97 80.76 10.839 116.393 25.448 30.705 10.249 56.828 19.121 77.037 11.727 117.063-46.797 198.649-158.418 200.607-289.336 0.003-20.659 16.554-37.21 36.97-37.21s36.968 16.551 36.968 36.968c-2.11 162.136-103.751 300.005-246.526 355.466z" />
<glyph unicode="&#xe927;" glyph-name="likes" d="M767.816-63.632l0.036 0.001c1.828 0.050 3.609 0.288 5.146 0.659l0.241 0.008c44.765 1.738 83.621 26.498 105.386 63.369l-0.036-0.058c0.661 1.008 1.208 2.098 1.653 3.359 4.687 11.883 115.266 290.145 137.349 372.336l-0.313-1.247c4.613 15.754 7.089 32.422 7.089 49.668 0 97.422-78.976 176.397-176.397 176.397-1.141 0-2.278-0.010-3.244-0.030l-119.787 0.66-1.079-7.464c12.248 70.15 18.634 142.313 18.634 215.97 0 7.698-0.070 15.38-0.192 21.895v0c0 70.642-57.266 127.908-127.908 127.908s-127.908-57.266-127.908-127.908v-25.766c-0.206-141.181-114.616-255.591-255.816-255.797v0c-14.128 0-25.582-11.454-25.582-25.582s11.454-25.582 25.582-25.582h0.015c169.456 0.169 306.795 137.508 306.964 306.979v25.747c0 42.385 34.36 76.745 76.745 76.745s76.745-34.36 76.745-76.745l-0.072 1.946c0.638-13.739 0.961-27.558 0.961-41.454 0-73.613-9.050-145.114-24.82-207.396l0.059 0.17c-1.127-2.855-1.747-5.966-1.747-9.222 0-5.385 1.694-10.374 4.526-14.385l0.057-0.088c4.572-6.68 12.235-11.078 20.937-11.135l153.425-0.664c1.111 0.030 2.225 0.045 3.343 0.045 10.594 0 20.874-1.34 29.829-3.672l0.9-0.211c54.155-14.957 93.922-64.582 93.922-123.495 0-11.766-1.586-23.16-4.345-33.083-20.4-75.92-124.838-339.988-134.741-364.744l-0.188-0.331c-13.345-21.779-37.367-36.311-64.781-36.311-0.218 0-0.435 0.001-0.619 0.003l0.040-0.001c-0.277 0.010-0.554 0.017-0.834 0.017-1.341 0-2.654-0.125-3.793-0.346h-379.103c-14.128 0-25.582-11.454-25.582-25.582s11.454-25.582 25.582-25.582h383.724zM230.602-63.632h-127.908c-56.513 0-102.326 45.814-102.326 102.326v0 409.306c0 56.513 45.814 102.326 102.326 102.326h127.908c14.063-0.018 25.469-11.367 25.582-25.406v-562.806c0-0.019 0-0.043 0-0.066 0-14.149-11.441-25.624-25.576-25.681h-0.005zM102.694 499.163c-28.218-0.093-51.069-22.945-51.163-51.154v-409.315c0.093-28.218 22.945-51.069 51.154-51.163h102.336v511.632h-102.326z" />
<glyph unicode="&#xe928;" glyph-name="video" d="M512-64c-281.6 0-512 230.4-512 512s230.4 512 512 512c281.6 0 512-230.4 512-512s-230.4-512-512-512v0 0zM512 868.571c-230.4 0-420.571-186.514-420.571-420.571s190.171-420.571 420.571-420.571c230.4 0 420.571 190.171 420.571 420.571 0 234.057-186.514 420.571-420.571 420.571v0 0zM398.629 221.257c-7.314 0-14.629 3.657-21.943 7.314-14.629 7.314-21.943 21.943-21.943 36.571v369.371c0 14.629 7.314 29.257 21.943 36.571s29.257 7.314 40.229 0l321.829-186.514c14.629-7.314 21.943-21.943 21.943-36.571s-7.314-29.257-21.943-36.571l-321.829-186.514c-7.314-3.657-10.971-3.657-18.286-3.657v0 0zM438.857 561.371v-226.743l197.486 113.371-197.486 113.371z" />
<glyph unicode="&#xe929;" glyph-name="volume" horiz-adv-x="702" d="M504.674 943.984c-9.388 10.336-22.881 16.799-37.884 16.799-28.23 0-51.115-22.885-51.115-51.115 0-13.985 5.617-26.659 14.717-35.888 104.851-110.24 169.355-259.719 169.355-424.264 0-0.234 0-0.467 0-0.701 0.001-0.247 0.001-0.583 0.001-0.918 0-165.066-64.914-314.97-170.606-425.578-9.085-9.025-14.845-21.843-14.845-36.006 0-28.23 22.885-51.115 51.115-51.115 15.011 0 28.51 6.47 37.861 16.774 123.013 128.682 198.705 303.421 198.705 495.839 0 0.365 0 0.73-0.001 1.096 0 0.212 0.001 0.53 0.001 0.847 0 191.68-75.147 365.808-197.588 494.53zM335.654 717.034c-9.352 9.834-22.533 15.951-37.143 15.951-28.288 0-51.221-22.932-51.221-51.221 0-13.678 5.362-26.104 14.098-35.291 48.952-51.594 79.071-121.517 79.071-198.474s-30.119-146.88-79.211-198.623c-9.188-9.132-14.948-21.95-14.948-36.112 0-28.23 22.885-51.115 51.115-51.115 15.011 0 28.51 6.47 37.861 16.774 66.392 69.948 107.202 164.661 107.202 268.906s-40.81 198.959-107.326 269.035zM185.376 450.215c0-51.19-41.498-92.688-92.688-92.688s-92.688 41.498-92.688 92.688c0 51.19 41.498 92.688 92.688 92.688s92.688-41.498 92.688-92.688z" />
<glyph unicode="&#xe92a;" glyph-name="keyboard" horiz-adv-x="1303" d="M1163.581 541.258h93.054c25.696 0 46.527-20.831 46.527-46.527v-186.108c0-25.696-20.831-46.527-46.527-46.527h-93.054c-25.696 0-46.527 20.831-46.527 46.527v186.108c0 25.696 20.831 46.527 46.527 46.527zM1163.581 960h93.054c25.696 0 46.527-20.831 46.527-46.527v-186.108c0-25.696-20.831-46.527-46.527-46.527h-93.054c-25.696 0-46.527 20.831-46.527 46.527v186.108c0 25.696 20.831 46.527 46.527 46.527zM790.957 541.258h93.054c25.696 0 46.527-20.831 46.527-46.527v-186.108c0-25.696-20.831-46.527-46.527-46.527h-93.054c-25.696 0-46.527 20.831-46.527 46.527v186.108c0 25.696 20.831 46.527 46.527 46.527zM790.957 960h93.054c25.696 0 46.527-20.831 46.527-46.527v-186.108c0-25.696-20.831-46.527-46.527-46.527h-93.054c-25.696 0-46.527 20.831-46.527 46.527v186.108c0 25.696 20.831 46.527 46.527 46.527zM139.581 75.989h1024c25.696 0 46.527-20.831 46.527-46.527v-46.527c0-25.696-20.831-46.527-46.527-46.527h-1024c-25.696 0-46.527 20.831-46.527 46.527v46.527c0 25.696 20.831 46.527 46.527 46.527zM418.742 541.258h93.054c25.696 0 46.527-20.831 46.527-46.527v-186.108c0-25.696-20.831-46.527-46.527-46.527h-93.054c-25.696 0-46.527 20.831-46.527 46.527v186.108c0 25.696 20.831 46.527 46.527 46.527zM418.742 960h93.054c25.696 0 46.527-20.831 46.527-46.527v-186.108c0-25.696-20.831-46.527-46.527-46.527h-93.054c-25.696 0-46.527 20.831-46.527 46.527v186.108c0 25.696 20.831 46.527 46.527 46.527zM46.527 541.258h93.054c25.696 0 46.527-20.831 46.527-46.527v-186.108c0-25.696-20.831-46.527-46.527-46.527h-93.054c-25.696 0-46.527 20.831-46.527 46.527v186.108c0 25.696 20.831 46.527 46.527 46.527zM46.527 960h93.054c25.696 0 46.527-20.831 46.527-46.527v-186.108c0-25.696-20.831-46.527-46.527-46.527h-93.054c-25.696 0-46.527 20.831-46.527 46.527v186.108c0 25.696 20.831 46.527 46.527 46.527z" />
<glyph unicode="&#xe92b;" glyph-name="speak" horiz-adv-x="704" d="M351.942 319.974c106.032 0 191.987 85.956 191.987 191.987v256.051c0 106.032-85.956 191.987-191.987 191.987s-191.987-85.956-191.987-191.987v-256.051c0-106.032 85.956-191.987 191.987-191.987zM657.068 543.994c-26.536 0-48.048-21.512-48.048-48.048 0-141.413-114.638-256.051-256.051-256.051s-256.051 114.638-256.051 256.051c0 26.763-21.696 48.459-48.459 48.459s-48.459-21.696-48.459-48.459v0c-0.001-0.223-0.001-0.487-0.001-0.751 0-177.418 131.434-324.138 302.245-348.104l1.856-115.2h-160.366c-26.536 0-48.048-21.512-48.048-48.048s21.512-48.048 48.048-48.048h416.417c26.536 0 48.048 21.512 48.048 48.048s-21.512 48.048-48.048 48.048h-160.16v115.603c172.667 24.179 304.1 170.899 304.1 348.317 0 0.264 0 0.528-0.001 0.791v-0.041c-0.337 25.916-21.141 46.864-46.968 47.431z" />
<glyph unicode="&#xe92c;" d="M256.002 607.999h511.996c35.346 0 63.999-28.654 63.999-63.999v-415.996c0-35.346-28.654-63.999-63.999-63.999h-511.996c-35.346 0-63.999 28.654-63.999 63.999v415.996c0 35.346 28.654 63.999 63.999 63.999z" />
<glyph unicode="&#xe92d;" glyph-name="mark" horiz-adv-x="727" d="M685.67 960h-644.71c-22.622 0-40.96-18.338-40.96-40.96v-962.56c0-0.024 0-0.053 0-0.081 0-11.311 9.169-20.48 20.48-20.48 3.77 0 7.303 1.019 10.337 2.796l322.259 185.292c2.937 1.725 6.47 2.744 10.24 2.744s7.303-1.019 10.337-2.796l322.668-185.292c2.937-1.725 6.47-2.744 10.24-2.744 11.311 0 20.48 9.169 20.48 20.48 0 0.029 0 0.057 0 0.086v962.556c0 0.001 0 0.001 0 0.002 0 22.622-18.338 40.96-40.96 40.96-0.144 0-0.288-0.001-0.431-0.002zM584.499 591.36l-95.232-92.774 22.733-132.506c0.386-1.487 0.608-3.193 0.608-4.952 0-11.311-9.169-20.48-20.48-20.48-4.020 0-7.769 1.158-10.932 3.159l-117.676 61.39-117.76-61.44c-3.134-2.046-6.971-3.264-11.092-3.264-11.311 0-20.48 9.169-20.48 20.48 0 1.815 0.236 3.574 0.679 5.25l22.496 130.929-95.232 94.208c-4.574 3.784-7.466 9.461-7.466 15.814 0 10.839 8.421 19.712 19.077 20.433l131.544 19.050 58.778 119.194c3.083 7.651 10.446 12.952 19.046 12.952s15.963-5.302 18.997-12.815l58.827-119.331 131.482-19.046c10.891-0.525 19.523-9.483 19.523-20.458 0-6.341-2.881-12.008-7.406-15.765z" />
<glyph unicode="&#xe92e;" d="M831.997-63.996h-639.995c-70.692 0-127.999 57.307-127.999 127.999v0 639.995c0 70.692 57.307 127.999 127.999 127.999v0h95.999v63.999h86.207c33.297 39.258 82.662 64.008 137.806 64.008s104.509-24.75 137.591-63.747l0.215-0.26h86.176v-63.999h95.999c70.692 0 127.999-57.307 127.999-127.999v0-639.995c0-70.692-57.307-127.999-127.999-127.999v0zM671.999 831.997h-71.103c0 35.36-39.807 63.999-88.895 63.999s-88.895-28.64-88.895-63.999h-71.103v-127.999h319.997v127.999zM895.997 703.998c0 35.346-28.654 63.999-63.999 63.999v0h-95.999v-127.999h-447.996v127.999h-95.999c-35.346 0-63.999-28.654-63.999-63.999v0-639.995c0-35.346 28.654-63.999 63.999-63.999v0h639.995c35.346 0 63.999 28.654 63.999 63.999v0 639.995zM735.998 128.003h-447.996c-17.672 0-32 14.327-32 32s14.327 32 32 32v0h447.996c17.672 0 32-14.327 32-32s-14.327-32-32-32v0zM735.998 288.001h-447.996c-17.672 0-32 14.327-32 32s14.327 32 32 32v0h447.996c17.672 0 32-14.327 32-32s-14.327-32-32-32v0zM735.998 448h-447.996c-17.672 0-32 14.327-32 32s14.327 32 32 32v0h447.996c17.672 0 32-14.327 32-32s-14.327-32-32-32v0z" />
<glyph unicode="&#xe92f;" glyph-name="shareothers" d="M787.983 566.278c-57.154 0.086-108.559 24.629-144.323 63.721l-0.134 0.149-219.643-125.494c5.877-17.266 9.268-37.156 9.268-57.839 0-32.085-8.164-62.264-22.527-88.572l0.484 0.969 211.127-120.644c35.545 54.502 96.221 90.024 165.194 90.024 108.568 0 196.579-88.011 196.579-196.579s-88.011-196.579-196.579-196.579c-108.568 0-196.579 88.011-196.579 196.579 0 0.203 0 0.405 0.002 0.608v-0.031c0.371 7.89 1.132 15.222 2.278 22.427l-0.149-1.137-238.685 136.414 0.748 1.537c-32.523-25.428-73.964-40.823-118.996-40.963h-0.032c-0.251-0.002-0.547-0.002-0.842-0.002-108.871 0-197.13 88.259-197.13 197.13s88.259 197.13 197.13 197.13c57.44 0 109.141-24.567 145.171-63.766l0.128-0.142 219.643 125.532c-5.189 16.793-8.176 36.1-8.176 56.102 0 108.568 88.011 196.579 196.579 196.579s196.579-88.011 196.579-196.579c0-108.568-88.011-196.579-196.579-196.579-0.189 0-0.377 0-0.567 0.002h0.029zM787.983 14.313c65.323 0 118.278 52.956 118.278 118.278s-52.956 118.278-118.278 118.278c-65.323 0-118.278-52.956-118.278-118.278v0c0-65.323 52.956-118.278 118.278-118.278v0zM236.017 566.278c-65.323 0-118.278-52.956-118.278-118.278s52.956-118.278 118.278-118.278c65.323 0 118.278 52.956 118.278 118.278v0c0 65.323-52.956 118.278-118.278 118.278v0zM787.983 881.687c-65.323 0-118.278-52.956-118.278-118.278s52.956-118.278 118.278-118.278c65.323 0 118.278 52.956 118.278 118.278v0c0 65.323-52.956 118.278-118.278 118.278v0z" />
<glyph unicode="&#xe930;" glyph-name="label" d="M778.112 181.504c1.279-53.76-5.761-70.271-36.225-70.271-13.248-1.473-34.88 4.224-65.983 23.231-47.232 23.552-79.744 44.032-108.097 56.769-25.407 15.359-65.151 13.504-89.983-0.129-32.896-12.991-79.616-41.6-106.816-56.64-33.28-20.607-55.424-23.231-63.424-23.231-31.872 0-40.128 19.52-38.848 70.271l-1.344 586.368c0 36.736 31.68 64 64 64h384c38.977 0 64-27.776 64-64l-1.28-586.368z" />
<glyph unicode="&#xe931;" glyph-name="like-o" d="M717.061 863.724c-47.13-8.207-86.164-22.799-119.091-45.061l-33.792-27.356-53.11-53.105c-75.766 58.148-108.401 129.418-249.436 127.135l-59.546-9.656c-50.683-15.401-99.302-44.897-128.748-82.074-17.29-21.837-34.196-48.082-45.061-75.638-64.169-162.744 47.012-264.274 122.312-339.569l131.963-130.355 162.54-160.932c19.635-15.862 34.406-42.988 77.245-35.405 51.287 9.078 105.016 84.096 138.399 117.478l191.508 189.896c59.085 59.080 125.66 108.38 151.276 201.165 48.579 175.995-114.34 353.454-286.459 323.476zM933.509 504.515c-19.748-33.828-47.898-60.436-75.126-86.17-8.202-7.752-16.681-15.759-24.648-23.731l-191.534-189.932c-3.195-3.195-9.129-9.482-16.64-17.428-72.53-76.785-100.244-101.432-114.063-101.432l-1.464-0.026c-16.563 0-31.739 18.166-45.133 34.196-3.543 4.244-6.892 8.248-9.324 10.67l-133.171 131.512-153.272 151.711c-5.827 5.781-11.791 11.554-17.826 17.252-26.857 25.546-54.126 51.489-69.665 87.344-34.499 79.611-8.95 176.957 35.686 225.075 27.423 29.563 63.391 51.738 101.284 62.433l0.604 0.169 43.259 6.656h0.804c61.614-0.271 89.185-17.147 118.385-35.011 10.429-6.38 21.207-12.974 34.038-19.092l1.587-0.758 94.551-94.546c17.444 14.464 33.009 31.38 49.367 49.167 26.798 29.128 54.508 59.249 91.653 78.203 30.566 15.59 62.326 23.501 94.403 23.501 95.468 0 184.32-71.823 206.679-167.071 11.832-50.427-1.321-109.952-20.434-142.694z" />
<glyph unicode="&#xe932;" glyph-name="love" d="M959.156 398.849l-398.742-348.791c-44.799-44.799-53.086-44.799-97.757 0l-397.846 348.791c-38.76 53.76-62.732 120.463-64.787 192.653l-0.011 0.495c0 150.204 105.79 287.993 255.993 287.993 106.654 0 192.411-60.062 255.001-144.573 64.446 81.725 150.364 144.573 256.986 144.573 150.204 0 255.993-137.789 255.993-287.993 0.016-1.195 0.026-2.606 0.026-4.020 0-71.593-24.412-137.484-65.366-189.803l0.51 0.676zM767.993 815.991c-93.31 0-200.571-103.517-255.993-177.468-56.926 76.798-162.683 178.299-255.993 177.468-113.437-0.992-191.995-106.654-191.995-223.994 0-62.942 5.472-87.998 63.998-176.988l351.991-286.809c29.919-30.527 30.047-31.999 63.998 0.96l351.991 283.833c39.909 43.434 64.371 101.614 64.371 165.506 0 4.749-0.135 9.465-0.401 14.147l0.030-0.649c0 117.341-81.565 223.994-191.995 223.994z" />
<glyph unicode="&#xe933;" glyph-name="order" d="M800.325-38.627h-581.452c-52.604 0-135.1 66.149-135.1 135.019v549.082c0 57.979 59.385 135.005 122.8 135.005h73.539v-130.797h458.126v130.797h64.341c63.43 0 132.846-58.666 132.846-135.469v-552.745c0-79.775-71.668-130.892-135.1-130.892v0 0zM771.617 501.817c0 9.021-7.326 16.427-16.347 16.427h-491.343c-9.021 0-16.347-7.406-16.347-16.427v-32.755c0-9.035 7.326-16.345 16.347-16.345h491.344c9.021 0 16.347 7.309 16.347 16.345l-0.001 32.755zM771.617 338.089c0 9.021-7.326 16.347-16.347 16.347h-491.343c-9.021 0-16.347-7.326-16.347-16.347v-32.755c0-9.118 7.326-16.427 16.347-16.427h491.344c9.021 0 16.347 7.309 16.347 16.427l-0.001 32.755zM771.617 174.282c0 9.021-7.326 16.345-16.347 16.345h-491.343c-9.021 0-16.347-7.324-16.347-16.345v-32.756c0-9.036 7.326-16.346 16.347-16.346h491.344c9.021 0 16.347 7.309 16.347 16.346l-0.001 32.756zM476.451 715.045h-130.893v130.814h65.446c0 36.097 29.332 65.445 65.445 65.445h65.445c36.098 0 65.446-29.349 65.446-65.445h65.446v-130.814h-196.335zM509.207 856.127c-22.649 0-40.928-18.377-40.928-40.943 0-22.551 18.281-40.848 40.928-40.848 22.566 0 40.865 18.298 40.865 40.848 0 22.566-18.299 40.943-40.865 40.943v0 0z" />
<glyph unicode="&#xe934;" glyph-name="publish" d="M634.8 89.8c-11-10.7-20.1-19.6-27.6-27.4-7.4-7.5-11.6-11.7-12.3-12.4-4-3-8.3-6.2-12.9-9.7-4.8-3.3-9.3-6.2-14.2-8.5-4.7-2.4-12-5.1-21.8-8.6-10-3.4-20-6.7-30.1-9.6-10.2-3.2-20-5.9-29.4-8-9.3-2.3-16.4-4-21.2-4.6-9.4-1.5-15.7-0.3-18.9 3.3-3.1 3.8-3.9 10.4-2.4 19.4 0.8 4.5 2.4 11.3 4.7 20.4 2.4 9.2 5.1 18.5 8.3 27.9 3.1 9.5 6.1 18.5 8.8 26.7 2.9 8.5 5.1 14 6.5 17.2 4.8 9.8 11.1 18.5 19 26l15.2 14.8 29.4 28.5c11.8 11.4 24.8 24 38.9 38.1 14.1 14 28.3 27.9 42.4 41.6 33.7 32.6 71.8 68.9 114.1 109.2l98.9-95.5-195.4-188.8zM897.2 342c-3.9-3.7-7.4-7.3-10.6-10.7-3-3.5-5.8-6.2-8.3-8.5-3-3-5.8-5.2-8.3-6.8l-100 95.5c4.8 3.8 10 8.5 15.8 13.7 5.9 5.2 10.8 9.4 14.8 12.5 9.3 8.3 19.6 11.9 30.5 10.7 11.1-1.1 20-3.5 27.1-7.3 7.8-3.8 16.2-10.3 25.3-19.9 9.1-9.4 16-19.5 20.7-30.2 2.3-6 3.9-13.7 4.7-22.7 0.9-9.1-3-17.9-11.7-26.3zM746.4 895.8h-524.8c-41 0-80.2-32.1-80.2-71.8v-687.3c0-39.6 39.2-77.5 80.2-77.5h107.8l497.2 480.5v284.3c0 39.7-39.2 71.8-80.2 71.8zM468.1 331.1h-190.8v47.4h190.8v-47.4zM468.1 438.8h-190.8v47.4h190.8v-47.4zM690.7 546.4h-413.4v47.4h413.5v-47.4zM690.7 654h-413.4v47.5h413.5v-47.5z" />
<glyph unicode="&#xe935;" glyph-name="share" d="M952.306 447.999c0-242.546-196.618-439.163-439.133-439.163-242.545 0-439.164 196.617-439.164 439.163 0 242.512 196.619 439.13 439.164 439.13v62.749c-277.181 0-501.877-224.698-501.877-501.878s224.7-501.877 501.878-501.877c277.182 0 501.878 224.698 501.878 501.876h-62.746zM454.92 377.195h62.714c0 242.513 147.898 342.49 390.447 342.49l-140.468-152.419c-5.905-6.322-5.543-16.241 0.779-22.147l22.922-21.418c6.32-5.906 16.244-5.594 22.15 0.728l192.751 206.294c5.904 6.321 5.567 16.266-0.754 22.173l-206.299 192.75c-6.32 5.905-16.265 5.567-22.168-0.753l-21.421-22.925c-5.907-6.32-5.57-16.265 0.751-22.172l128.685-120.234c-277.182 0-430.089-125.185-430.089-402.366v0z" />
<glyph unicode="&#xe936;" glyph-name="single" d="M739.415 319.685c-9.965-13.136-7.491-32.087 5.526-42.213 96.111-74.816 151.236-188.265 151.236-311.271 0-16.663 13.369-30.201 29.803-30.201 16.423 0 29.776 13.538 29.776 30.201 0 142.014-63.617 272.922-174.52 359.145-12.67 9.925-32.17 7.223-41.822-5.661v0zM98.045-64c16.419 0 29.776 13.538 29.776 30.201 0 215.825 172.349 391.412 384.183 391.412 163.183 0 295.936 135.079 295.936 301.121-0.001 166.119-132.754 301.266-295.937 301.266-163.188 0-295.94-135.148-295.94-301.266 0-109.95 60.277-211.895 154.926-264.358-179.087-61.333-302.747-234.949-302.747-428.175 0-16.663 13.369-30.201 29.803-30.201v0zM512.002 899.454c130.33 0 236.356-107.984 236.356-240.721s-106.025-240.726-236.356-240.726c-130.242 0-236.193 107.99-236.193 240.726s105.953 240.721 236.193 240.721v0z" />
<glyph unicode="&#xe937;" glyph-name="FAQ-user" d="M822.768 823.008h-620.906c-40.245 0-73.461-33.218-73.461-74.1v-508.479c0-37.689 31.939-74.1 73.461-74.1h339.198l95.107-93.337 74.812 93.337h111.788c40.244 0 73.461 33.217 72.823 74.1v508.479c0.64 40.882-32.578 74.1-72.822 74.1zM546.81 289.617c0-8.82-7.15-15.97-15.97-15.97h-26.83c-8.82 0-15.97 7.15-15.97 15.97v27.468c0 8.82 7.15 15.97 15.97 15.97h26.83c8.82 0 15.97-7.15 15.97-15.97v-27.468zM639.434 538.106c-8.944-15.97-25.552-34.495-50.464-56.852-17.247-14.693-27.468-26.19-33.218-33.218-5.11-7.027-8.943-15.331-11.498-24.913-1.905-6.666-3.1-16.881-3.849-30.382-0.467-8.417-7.508-14.972-15.936-14.972h-17.904c-8.82 0-15.97 7.15-15.97 15.97 0 20.442 2.555 37.689 8.304 53.020 3.832 11.499 10.859 22.358 20.442 33.856 7.027 8.304 19.163 20.442 37.050 36.411s29.384 28.746 34.495 38.328c5.11 9.581 7.666 19.802 7.666 30.662 0 20.442-7.666 37.688-23.635 53.659-15.331 15.33-34.495 22.997-57.491 22.997-21.719 0-40.244-7.027-54.936-21.080-12.231-11.699-20.92-28.712-26.069-51.035-1.835-7.955-9.32-13.32-17.426-12.344l-21.818 2.629c-9.168 1.104-15.651 9.79-13.822 18.841 6.342 31.386 19.916 55.871 39.529 73.85 23.635 21.080 54.936 31.939 93.264 31.939 40.882 0 73.461-11.499 98.373-33.856s36.411-49.826 37.050-82.405c1.277-18.526-3.195-35.135-12.137-51.105z" />
<glyph unicode="&#xe938;" glyph-name="replay" d="M431.507 290.243l246.283 142.106c11.262 6.625 11.262 22.525 0 28.984l-246.283 142.105c-11.262 6.625-25.175-1.656-25.175-14.575v-284.211c0.331-12.753 14.243-20.703 25.175-14.409zM504.878 832c-110.306 0-210.012-46.872-279.905-121.568-4.969-5.134-9.937-10.6-14.575-16.397l-76.187 76.187v-208.687h208.687l-77.843 77.843c56.147 70.39 142.934 115.606 240.155 115.606 169.765 0 307.233-137.468 307.233-307.233s-137.469-306.736-307.234-306.736c-134.984 0-249.43 86.787-290.836 207.859h-79.997c43.891-163.803 193.119-284.874 370.833-284.874 212.496 0 384.58 171.918 384.58 383.917s-172.415 384.083-384.911 384.083z" />
<glyph unicode="&#xe939;" glyph-name="left" d="M376.237 426.982c-12.499-12.499-32.755-12.499-45.254 0v0c-12.499 12.499-12.499 32.755 0 45.254l316.781 316.781c12.499 12.499 32.755 12.499 45.254 0v0c12.499-12.499 12.499-32.755 0-45.254l-316.781-316.781zM693.018 152.237c12.499-12.499 12.499-32.755 0-45.254v0c-12.499-12.499-32.755-12.499-45.254 0l-316.781 316.781c-12.499 12.499-12.499 32.755 0 45.254v0c12.499 12.499 32.755 12.499 45.254 0l316.781-316.781z" />
<glyph unicode="&#xe93a;" glyph-name="right2" d="M255.809 960l512-512-512-512z" />
<glyph unicode="&#xe93b;" d="M224 800l282.433-96 293.568 96c35.346 0 64-28.654 64-64v0-512c0-35.346-28.654-64-64-64v0l-283.264-96-292.736 96c-35.346 0-64 28.654-64 64v0 512c0 35.346 28.654 64 64 64v0z" />
<glyph unicode="&#xe93c;" d="M896 32s-172.416-48-352.256-96h-64.8c-178.367 48-350.944 96-350.944 96-67.68 22.080-128 57.28-128 128v672c0 70.692 57.308 128 128 128v0s190.56-52.992 350.944-96c21.12 0 42.368-0.833 63.456 0 168.353 44.993 353.6 96 353.6 96 70.692 0 128-57.308 128-128v0-672c0-70.72-62.304-111.040-128-128zM128 896c-35.346 0-64-28.654-64-64v0-672c0-35.2 27.648-54.080 64-64 0 0 177.216-48.96 352-96v800zM960 832c0 35.346-28.654 64-64 64v0l-352-96v-799.36c177.824 47.040 352 95.36 352 95.36 34.336 10.88 64 28.8 64 64v672z" />
<glyph unicode="&#xe93d;" glyph-name="lesson" d="M960 896v-608l-0.011 0.291c0.105-2.074 0.157-4.161 0.157-6.261 0-67.476-54.7-122.176-122.176-122.176-2.1 0-4.188 0.053-5.97 0.146h-192l128-224-96.384 0.416-127.616 223.584h-64l-127.616-223.584-96.384-0.416 128 224-191.709 0.011c-2.074-0.105-4.161-0.157-6.261-0.157-67.476 0-122.176 54.7-122.176 122.176 0 2.1 0.053 4.188 0.146 5.97v608h-64v64h1024v-64h-64zM896.48 896.32h-768.96c0-40.512 0.48-608.32 0.48-608.32-0.096-1.271-0.151-2.753-0.151-4.246 0-33.084 26.82-59.904 59.904-59.904 1.495 0 2.976 0.055 4.442 0.163l-0.196-0.011h640c1.271-0.096 2.753-0.151 4.246-0.151 33.084 0 59.904 26.82 59.904 59.904 0 1.495-0.055 2.976-0.163 4.442l0.011-0.196s0.48 543.776 0.48 608.32zM704 320c-17.673 0-32 14.327-32 32v0 288c0 17.673 14.327 32 32 32s32-14.327 32-32v0-288c0-17.673-14.327-32-32-32v0zM512 320c-17.672 0-32 14.327-32 32v0 384c0 17.672 14.327 32 32 32s32-14.327 32-32v0-384c0-17.673-14.327-32-32-32v0zM320 320c-17.673 0-32 14.327-32 32v0 128c0 17.673 14.327 32 32 32s32-14.327 32-32v0-128c0-17.673-14.327-32-32-32v0z" />
<glyph unicode="&#xe93e;" glyph-name="comment" d="M511.999 112.117c-28.735 0-56.729 2.604-83.97 7.1l-196.797-119.402v198.778c-102.614 72.052-168.46 182.518-168.46 306.582 0 217.079 201.13 393.058 449.228 393.058 248.084 0 449.228-175.98 449.228-393.058-0.001-217.091-201.145-393.057-449.229-393.057zM511.999 842.082c-217.087 0-393.074-150.852-393.074-336.907 0-114.166 66.421-214.898 167.762-275.821l-1.768-130.234 132.172 79.456c30.449-6.498 62.117-10.309 94.91-10.309 217.101 0 393.073 150.825 393.073 336.907 0 186.057-175.972 336.908-393.074 336.908zM736.614 449.023c-31.012 0-56.154 25.128-56.154 56.151 0 31.010 25.143 56.152 56.154 56.152s56.154-25.142 56.154-56.152c0-31.023-25.144-56.151-56.154-56.151zM511.999 449.023c-31.011 0-56.153 25.128-56.153 56.151 0 31.010 25.143 56.152 56.153 56.152 31.012 0 56.154-25.142 56.154-56.152 0-31.023-25.143-56.151-56.154-56.151zM287.386 449.023c-31.011 0-56.153 25.128-56.153 56.151 0 31.010 25.143 56.152 56.153 56.152s56.153-25.142 56.153-56.152c0-31.023-25.143-56.151-56.153-56.151z" />
<glyph unicode="&#xe93f;" glyph-name="home" d="M999.894 566.539c-157.464 91.854-314.927 183.707-472.391 274.249-2.624 1.312-5.249 2.624-7.873 3.937-7.873 2.624-17.059 2.624-26.244-3.937-156.151-91.854-312.303-183.707-468.454-274.249-36.741-22.307-3.937-78.732 34.117-56.424 15.746 9.185 31.493 18.371 47.239 27.556 0-120.722 0-242.756 0-363.478 0-10.498 5.249-19.683 14.434-24.932 154.839-82.668 341.171-115.473 515.693-89.229 38.054 5.249 22.307 61.673-15.746 56.424-152.215-22.307-317.551 6.561-454.020 76.107 0 127.283 0 254.566 0 381.849 115.473 66.922 229.634 135.156 345.108 202.078 115.473-66.922 232.259-135.156 347.732-202.078 0-127.283 0-254.566 0-381.849-36.741-19.683-77.42-35.429-118.098-47.239-36.741-11.81-20.995-66.922 15.746-56.424 44.615 14.434 87.917 31.493 129.907 52.488 15.746 7.873 31.493 17.059 31.493 36.741 0 40.678 0 81.356 0 122.034 0 80.044 0 158.776 0 238.82 15.746-9.185 31.493-18.371 47.239-27.556 36.741-23.62 70.859 34.117 34.117 55.112zM393.659 474.686c0 31.493-26.244 56.424-57.737 56.424-32.805 0-57.737-24.932-57.737-56.424s26.244-56.424 57.737-56.424c31.493 0 57.737 24.932 57.737 56.424zM746.64 474.686c0 31.493-26.244 56.424-57.737 56.424-32.805 0-59.049-24.932-59.049-56.424s26.244-56.424 57.737-56.424c32.805 0 59.049 24.932 59.049 56.424zM308.366 275.232c124.659-59.049 283.434-65.61 406.781 0 34.117 18.371 3.937 68.234-30.181 49.863-103.664-55.112-242.756-49.863-347.732 0-32.805 17.059-64.298-34.117-28.868-49.863z" />
<glyph unicode="&#xe940;" glyph-name="courses" d="M85.839 874.663v-853.327c0-47.147 38.139-85.337 85.234-85.337h707.152c38.656 0 59.938 23.974 59.938 68.006 0 29.435-25.207 59.998-59.938 59.998h-624.563c-23.441 0-42.619 19.212-42.619 42.667 0 23.458 19.178 42.675 42.619 42.675h599.262c47.099 0 85.231 38.182 85.231 85.328v639.99c-0.002 47.15-38.132 85.337-85.231 85.337h-298.31v-405.117c0-5.538-2.137-11.093-6.182-15.363-8.298-8.306-21.951-8.306-30.254 0-5.547 5.772-91.404 77.239-91.404 77.239s-85.874-71.467-91.421-77.239c-8.298-8.306-21.951-8.306-30.254 0-4.045 4.27-6.182 9.825-6.182 15.363v405.117h-127.841c-47.099 0-85.238-38.187-85.238-85.337v0z" />
<glyph unicode="&#xe941;" glyph-name="watchvideo" d="M959.999 0.001l-192 160v-32c0-70.692-57.307-128-128-128v0h-511.999c-70.692 0-128 57.307-128 128v0 256c0.132 47.969 26.736 89.692 65.967 111.347l0.656 0.332c-40.884 35.409-66.595 87.396-66.595 145.387 0 106.039 85.961 192 192 192s192-85.961 192-192c0-49.766-18.934-95.11-49.992-129.221l0.139 0.154h117.376c-42.109 40.832-68.242 97.931-68.242 161.132 0 123.906 100.446 224.352 224.352 224.352s224.352-100.446 224.352-224.352c0-81.31-43.255-152.519-108.010-191.867l-0.995-0.561c27.512-23.402 44.882-58.014 44.992-96.685v-0.019l192 128c35.346 0 64-28.654 64-64v0-384c0-35.346-28.654-64-64-64v0zM192 768c-70.692 0-128-57.307-128-128s57.307-128 128-128c70.692 0 128 57.307 128 128v0c0 70.692-57.307 128-128 128v0zM128 448c-35.346 0-64-28.654-64-64v0-256c0-35.346 28.654-64 64-64v0h511.999c35.346 0 64 28.654 64 64v0 256c0 35.346-28.654 64-64 64v0h-511.999zM768.352 672c0 88.56-71.792 160.352-160.352 160.352s-160.352-71.792-160.352-160.352c0-88.56 71.792-160.352 160.352-160.352v0c88.56 0 160.352 71.792 160.352 160.352v0zM959.999 103.84v344.16l-192-128v-96l192-160v39.84z" />
<glyph unicode="&#xe942;" d="M228.927-32h-100.928c-35.346 0-64 28.654-64 64v0 832c0 35.346 28.654 64 64 64v0h96z" />
<glyph unicode="&#xe943;" d="M864 128h-544c-35.346 0-64-28.654-64-64s28.654-64 64-64v0h654.048c-0.512-0.864-0.736-1.856-1.28-2.72v0c11.338-5.089 19.090-16.279 19.090-29.28 0-17.624-14.246-31.919-31.85-32h-800.007c-70.692 0-128 57.308-128 128v0 768c0 70.692 57.308 128 128 128v0h704c70.692 0 128-57.308 128-128v0-704h-128zM544 896h-256v-256c0-17.672 14.327-32 32-32v0l98.016 32 93.984-32c17.673 0 32 14.327 32 32v0 256zM928 832c0 35.346-28.654 64-64 64v0h-256v-320c0-35.346-28.654-64-64-64v0l-124 64-132-64c-35.346 0-64 28.654-64 64v0 320h-64c-35.346 0-64-28.654-64-64v0-768c0-35.346 28.654-64 64-64v0h49.76c-11.043 18.296-17.627 40.365-17.76 63.962v0.037c0 70.692 57.307 128 128 128v0h544c23.635-0.127 45.705-6.712 64.57-18.079l-0.57 0.319v657.76z" />
<glyph unicode="&#xe944;" glyph-name="timetable" d="M238.933-64h648.533c37.703 0 68.267 30.564 68.267 68.267v0 887.467c0 37.703-30.564 68.267-68.267 68.267v0h-68.267v-546.133l-103.459 102.4-101.341-102.4v546.133h-375.467v-1024zM136.533 960c-37.703 0-68.267-30.564-68.267-68.267v0-887.467c0-37.703 30.564-68.267 68.267-68.267v0h68.267v1024h-68.267z" />
<glyph unicode="&#xe945;" glyph-name="multiple" d="M606.669 849.51c-126.899 0-230.118-103.245-230.118-230.144 0-87.706 49.331-164.045 121.677-202.88-150.63-46.413-260.429-186.906-260.429-352.589 0-12.16 9.83-21.965 21.965-21.965s21.965 9.805 21.965 21.965c0 179.174 145.792 324.915 323.328 325.018 2.432-0.23 4.813-0.051 7.066 0.486 124.365 2.918 224.666 104.909 224.666 229.965 0 126.925-103.245 230.144-230.118 230.144v0zM606.669 433.229c-102.656 0-186.189 83.507-186.189 186.138 0 102.707 83.507 186.189 186.189 186.189 102.656 0 186.163-83.507 186.163-186.189 0-102.656-83.507-186.138-186.163-186.138v0zM867.866 324.326c-8.576 8.602-22.477 8.602-31.078 0.051-8.576-8.576-8.602-22.477-0.051-31.078 61.184-61.338 94.848-142.848 94.848-229.402 0-12.16 9.83-21.965 21.965-21.965s21.965 9.805 21.965 21.965c0.026 98.278-38.195 190.822-107.648 260.429v0zM374.221 427.597c0 0 0 0.051 0 0.077s0 0.051 0 0.051c0 12.16-9.83 21.99-21.965 21.99-79.718 0-144.563 69.299-144.563 154.445s64.845 154.445 144.563 154.445c12.134 0 21.965 9.856 21.965 21.965 0 12.134-9.83 21.965-21.965 21.965-103.936 0-188.493-89.011-188.493-198.4 0-72.832 37.504-136.602 93.261-171.085-118.579-42.086-204.262-160.41-204.262-299.52 0-12.134 9.83-21.965 21.965-21.965s21.965 9.83 21.965 21.965c0 150.016 114.637 272.026 255.59 272.026 12.109 0.051 21.914 9.882 21.939 22.042v0z" />
<glyph unicode="&#xe946;" glyph-name="FAQ" d="M511.983 896.107c123.732 0 235.704-49.869 316.865-131.283l1.713-2.188c79.939-80.687 129.344-191.911 129.344-314.647 0-48.173-7.855-94.633-22.020-138.847-13.682-41.57-33.241-80.449-57.195-115.641v-159.381c0-18.601-15.638-34.227-34.729-34.227h-333.978c-123.697 0-235.667 50.355-316.847 131.283v0c-81.159 81.416-131.039 193.133-131.039 316.847 0 123.702 49.869 235.668 131.040 316.828v0c81.176 81.393 193.143 131.255 316.846 131.255v0zM829.288 51.289v158.046l8.92 13.083c21.9 32.177 39.009 66.76 50.736 102.405 12.981 40.561 19.573 82 19.573 123.165 0 105.075-40.652 203.979-114.451 278.473l-2.145 2.145-1.597 2.053c-74.437 73.571-173.17 114.052-278.336 114.052-106.147 0-205.747-41.245-280.504-116.195-74.803-74.791-116.002-174.402-116.002-280.492 0-105.851 41.222-205.484 115.956-280.446 75.213-74.996 174.836-116.287 280.549-116.287h317.302zM689.132 562.642c0-21.077-4.79-41.542-14.405-61.427-9.615-19.851-32.412-45.356-68.357-76.478-27.483-24.040-44.79-42.972-51.888-56.83-7.028-13.62-11.293-24.074-12.133-58.635h-0.035c0-0.306 0.105-0.613 0.105-0.954 0-17.502-14.441-31.667-32.273-31.667-17.797 0-32.238 14.165-32.238 31.667v0.069c0 0.818-0.489 32.485 3.566 47.399 2.133 13.076 6.503 25.912 13.112 38.409s15.245 24.278 25.84 35.31c10.629 11.032 25.524 24.755 44.79 41.201 24.475 21.315 40.839 35.753 49.895 48.829 8.531 12.292 10.839 28.33 10.035 43.21-1.399 25.709-17.063 47.671-35.944 62.96-22.168 17.911-45.454 20.805-75.175 20.805-60.455 0-102.622-26.048-115.105-98.611-1.748-17.196-14.056-32.383-32.028-32.383-19.126 0-32.027 16.514-32.027 35.31v2.655c5.735 49.748 24.335 88.157 55.804 115.261 31.469 27.071 72.168 40.622 122.133 40.622 51.468 0 93.741-13.927 126.818-41.712 33.007-27.851 49.511-62.822 49.511-105.011v0 0zM511.964 261.986c-21.223 0-38.426-16.889-38.426-37.695s17.203-37.66 38.426-37.66c21.189 0 38.391 16.855 38.391 37.66s-17.203 37.695-38.391 37.695v0 0z" />
<glyph unicode="&#xe947;" glyph-name="read" d="M507.863 284.546c84.679 0 153.506 71.184 153.506 158.656 0 87.401-68.828 158.585-153.506 158.585-84.673 0-153.527-71.184-153.527-158.585 0-87.47 68.853-158.656 153.527-158.656v0zM507.863 564.697c64.172 0 116.418-54.527 116.418-121.496 0-67.060-52.246-121.566-116.418-121.566-64.217 0-116.437 54.506-116.437 121.566 0 66.97 52.22 121.496 116.437 121.496v0zM67.318 441.293c73.712-188.878 248.261-310.986 444.62-310.986 196.383 0 371.029 122.108 444.715 310.986l2.652 6.767-2.652 6.722c-73.686 188.877-248.332 310.911-444.715 310.911-196.357 0-370.882-122.033-444.62-310.911l-2.623-6.722 2.623-6.767zM511.937 728.628c178.72 0 337.918-109.866 407.48-280.568-69.562-170.773-228.76-280.663-407.48-280.663-178.65 0-337.793 109.841-407.409 280.663 69.617 170.702 228.76 280.568 407.409 280.568v0z" />
<glyph unicode="&#xe948;" d="M185.514 644.16v0c-28.943 0-52.405-23.461-52.405-52.405v-471.661c0-28.943 23.461-52.405 52.405-52.405h471.661c28.943 0 52.405 23.461 52.405 52.405v471.661c0 28.943-23.461 52.405-52.405 52.405h-471.661zM422.316 121.795c-10.296-9.787-23.507-16.595-38.207-18.991l-0.421-0.056-326.571-161.020c-5.292-2.881-11.591-4.574-18.286-4.574-21.448 0-38.832 17.386-38.832 38.832 0 6.639 1.668 12.891 4.605 18.353l-0.103-0.207 161.358 325.736c2.466 15.094 9.297 28.28 19.13 38.575l-0.025-0.026 579.96 578.651c13.511 13.457 32.143 21.778 52.721 21.778s39.215-8.322 52.721-21.781l-0.002 0.002 131.805-131.515c13.488-13.45 21.831-32.050 21.831-52.603s-8.343-39.152-21.831-52.601l-0.002-0.002z" />
<glyph unicode="&#xe949;" d="M757.192-37.126h-624.768c-57.511 0.015-104.132 46.64-104.132 104.157 0 0.008 0 0.018 0 0.026v-0.001 625.186c0 0.048 0 0.104 0 0.163 0 58.739 46.437 106.631 104.603 108.969l0.214 0.008h419.252v-52.405h-419.252c-29.58-2.196-52.75-26.738-52.75-56.688 0-0.015 0-0.030 0-0.043v0.002-625.186c0-0.008 0-0.017 0-0.025 0-28.757 23.313-52.066 52.066-52.066h624.768c0.040 0 0.085 0 0.127 0 30.023 0 54.653 23.11 57.063 52.514l0.011 0.203v419.252h52.405v-419.252c-2.58-58.423-50.577-104.811-109.404-104.811-0.072 0-0.144 0-0.216 0h0.009zM446.004 215.344c-7.189-6.841-16.41-11.607-26.668-13.297l-0.295-0.040-227.97-112.674c-3.677-1.981-8.041-3.144-12.683-3.144-14.992 0-27.147 12.156-27.147 27.147 0 4.638 1.164 9.009 3.217 12.827l-0.072-0.145 112.674 228.128c1.725 10.561 6.489 19.796 13.356 27.011l-0.021-0.023 404.974 405.235c9.424 9.424 22.437 15.251 36.818 15.251s27.394-5.827 36.818-15.251l92.024-92.104c9.427-9.428 15.254-22.453 15.254-36.84s-5.83-27.411-15.254-36.84v0zM204.171 157.538c-1.014-1.853-1.609-4.061-1.609-6.405 0-7.48 6.066-13.545 13.545-13.545 2.346 0 4.553 0.598 6.474 1.645l-0.072-0.038 140.762 85.265-73.868 73.815zM335.554 325.868l73.554-73.603 294.527 294.708-92.679 91.449-293.792-294.132zM795.739 675.838l-55.237 55.26c-4.701 4.674-11.184 7.565-18.342 7.565s-13.641-2.89-18.343-7.566l-53.901-53.95 90.715-93.413 55.237 55.26c4.647 4.726 7.513 11.213 7.513 18.367 0 7.208-2.913 13.737-7.623 18.477l0.001-0.001z" />
<glyph unicode="&#xe94a;" glyph-name="sort" d="M989.866 413.867h-955.733c-18.852 0-34.133 15.283-34.133 34.133s15.283 34.133 34.133 34.133v0h955.733c18.852 0 34.133-15.283 34.133-34.133s-15.283-34.133-34.133-34.133v0zM989.866 823.467h-955.733c-18.852 0-34.133 15.283-34.133 34.133s15.283 34.133 34.133 34.133v0h955.733c18.852 0 34.133-15.283 34.133-34.133s-15.283-34.133-34.133-34.133v0zM34.134 72.533h955.733c18.852 0 34.133-15.283 34.133-34.133s-15.283-34.133-34.133-34.133v0h-955.733c-18.852 0-34.133 15.283-34.133 34.133s15.283 34.133 34.133 34.133v0z" />
<glyph unicode="&#xe94b;" glyph-name="commenting" d="M512 64c-33.844 0.054-66.969 2.961-99.196 8.495l3.484-0.495-224.288-136v226.56c-114.215 76.455-189.13 203.9-191.994 349.010l-0.006 0.43c0 247.36 229.216 448 512 448s512-200.64 512-448-229.216-448-512-448zM512 896c-247.424 0-448-171.84-448-384 3.793-134.938 79.156-251.446 189.334-313.278l1.866-0.962-2.016-148.48 150.656 90.56c32.445-7.369 69.754-11.672 108.041-11.84h0.119c247.424 0 448 171.84 448 384s-200.576 384-448 384zM768 448c-35.346 0-64 28.654-64 64s28.654 64 64 64c35.346 0 64-28.654 64-64v0c0-35.346-28.654-64-64-64v0zM512 448c-35.346 0-64 28.654-64 64s28.654 64 64 64c35.346 0 64-28.654 64-64v0c0-35.346-28.654-64-64-64v0zM256 448c-35.346 0-64 28.654-64 64s28.654 64 64 64c35.346 0 64-28.654 64-64v0c0-35.346-28.654-64-64-64v0z" />
<glyph unicode="&#xe94c;" glyph-name="open" horiz-adv-x="1026" d="M513.707 960c-282.776 0-512-229.224-512-512s229.224-512 512-512c282.776 0 512 229.224 512 512s-229.224 512-512 512zM515.452 158.853l-265.482 459.814h530.963l-265.482-459.814z" />
<glyph unicode="&#xe94d;" glyph-name="close" d="M591.831 453.19l416.223-416.223c9.677-9.683 15.661-23.058 15.661-37.828 0-29.556-23.961-53.517-53.517-53.517-14.785 0-28.17 5.996-37.856 15.688l-416.171 416.171-424.464-424.41c-9.744-10.078-23.384-16.334-38.487-16.334-29.55 0-53.506 23.957-53.506 53.506 0 15.103 6.258 28.743 16.319 38.472l424.479 424.479-416.171 416.171c-9.293 9.612-15.019 22.723-15.019 37.172 0 29.55 23.957 53.506 53.506 53.506 14.449 0 27.56-5.727 37.187-15.034l416.156-416.156 407.93 407.877c9.612 9.293 22.723 15.019 37.172 15.019 29.55 0 53.506-23.957 53.506-53.506 0-14.449-5.727-27.56-15.034-37.187l0.015 0.015z" />
<glyph unicode="&#xe94e;" glyph-name="deleteall" d="M864 640v-576c0-70.692-57.308-128-128-128v0h-448c-70.692 0-128 57.308-128 128v0 576c-35.346 0-64 28.654-64 64v0 64c0 35.346 28.654 64 64 64v0h192v64c0 35.346 28.654 64 64 64v0h192c35.346 0 64-28.654 64-64v0-64h192c35.346 0 64-28.654 64-64v0-64c0-35.346-28.654-64-64-64v0zM224 64c0-35.346 28.654-64 64-64v0h448c35.346 0 64 28.654 64 64v0 576h-576v-576zM608 864c0 17.673-14.328 32-32 32v0h-128c-17.672 0-32-14.327-32-32v0-32h192v32zM832 768h-640c-17.673 0-32-14.327-32-32s14.327-32 32-32v0h640c17.673 0 32 14.327 32 32s-14.327 32-32 32v0zM352 512c17.672 0 32-14.327 32-32v0-384c0-17.673-14.327-32-32-32s-32 14.327-32 32v0 384c0 17.672 14.327 32 32 32v0zM512 512c17.673 0 32-14.327 32-32v0-384c0-17.673-14.327-32-32-32s-32 14.327-32 32v0 384c0 17.672 14.327 32 32 32v0zM672 512c17.673 0 32-14.327 32-32v0-384c0-17.673-14.327-32-32-32s-32 14.327-32 32v0 384c0 17.672 14.327 32 32 32v0z" />
<glyph unicode="&#xe94f;" glyph-name="search" d="M1013.88-53.88c-5.526-5.552-13.173-8.986-21.622-8.986s-16.097 3.435-21.621 8.985l-229.044 229.044c-78.314-68.564-181.547-110.383-294.548-110.383-247.521 0-448.177 200.656-448.177 448.177s200.656 448.177 448.177 448.177c247.521 0 448.177-200.656 448.177-448.177 0-113.001-41.821-216.235-110.829-295.067l0.445 0.518 229.003-229.042c5.553-5.532 8.99-13.185 8.99-21.642 0-8.437-3.421-16.075-8.95-21.603v0zM448.115 895.234c-211.696 0-383.31-171.614-383.31-383.31s171.614-383.31 383.31-383.31c211.696 0 383.31 171.614 383.31 383.31v0c0 211.696-171.614 383.31-383.31 383.31v0z" />
<glyph unicode="&#xe950;" glyph-name="audio" d="M895.917 64.083v0-95.979c0-17.669-14.324-31.993-31.993-31.993s-31.993 14.324-31.993 31.993v0 95.979h-69.969c0.117 0.166 0.225 0.355 0.312 0.555l0.007 0.020c-68.114 2.942-122.23 58.836-122.31 127.389v191.966c0 70.677 57.295 127.972 127.972 127.972v0h126.757c0.32 5.343 1.216 10.558 1.216 15.997-9.053 205.032-177.474 367.827-383.917 367.827s-374.864-162.795-383.889-367.014l-0.029-0.814c0-5.439 0.927-10.654 1.216-15.997h126.757c70.677 0 127.972-57.295 127.972-127.972v0-191.959c-0.080-68.56-54.196-124.455-122.045-127.388l-0.265-0.009c0.095-0.22 0.202-0.41 0.326-0.586l-0.006 0.010h-133.955c-70.677 0-127.972 57.295-127.972 127.972v0 191.959c0.132 47.701 26.447 89.225 65.325 110.972l0.645 0.331c-0.896 10.814-1.983 21.595-1.983 32.665 8.896 240.521 206.023 432.128 447.904 432.128s439.008-191.608 447.88-431.32l0.024-0.809c0-11.038-1.087-21.852-1.983-32.665 39.523-22.079 65.837-63.604 65.97-111.286v-191.977c0-70.677-57.295-127.972-127.972-127.972v0zM228.125 128.069h27.93c35.339 0 63.986 28.648 63.986 63.986v0 191.959c0 35.339-28.648 63.986-63.986 63.986v0h-40.248c-14.974-42.933-23.659-92.424-23.739-143.932v-0.037c0-0.177 0-0.387 0-0.597 0-63.38 13.266-123.663 37.172-178.222l-1.116 2.857zM64.096 384.014v-191.959c0-35.339 28.648-63.986 63.986-63.986v0h30.201c-19.135 52.178-30.202 112.425-30.202 175.257 0 0.247 0 0.495 0 0.742v-0.037c0.077 51.294 7.41 100.846 21.025 147.723l-0.934-3.754h-20.092c-35.339 0-63.986-28.648-63.986-63.986v0zM808.193 448h-40.248c-35.339 0-63.986-28.648-63.986-63.986v0-191.959c0-35.339 28.648-63.986 63.986-63.986v0h27.93c22.791 51.701 36.057 111.985 36.057 175.365 0 0.21 0 0.42 0 0.63v-0.032c-0.080 51.545-8.766 101.036-24.695 147.15l0.955-3.181zM959.904 384.014c0 35.339-28.648 63.986-63.986 63.986v0h-20.092c12.682-43.123 20.014-92.675 20.092-143.927v-0.042c0-0.209 0-0.456 0-0.705 0-62.833-11.068-123.080-31.36-178.899l1.157 3.642h30.201c35.339 0 63.986 28.648 63.986 63.986v0 191.959z" />
<glyph unicode="&#xe951;" glyph-name="lookback" d="M480.608 768.864l63.392-0.864-0.704-292.864 318.144-121.6-25.952-68.256-355.487 130.72zM0 448c0-282.77 229.23-512 512-512s512 229.23 512 512c0 282.77-229.23 512-512 512v0c-282.77 0-512-229.23-512-512v0z" />
<glyph unicode="&#xe952;" d="M959.156 430.848l-398.742-412.789c-44.799-44.799-53.086-44.799-97.757 0l-397.846 412.789c-38.76 53.76-62.732 120.463-64.787 192.653l-0.011 0.495c0 150.204 105.757 287.993 255.993 287.993 106.621 0 192.411-60.062 255.001-144.573 64.446 81.725 150.364 144.573 256.986 144.573 150.204 0 255.993-137.789 255.993-287.993 0.016-1.195 0.026-2.606 0.026-4.020 0-71.593-24.412-137.484-65.366-189.803l0.51 0.676zM767.993 847.99c-93.31 0-200.571-103.517-255.993-177.468-56.926 76.798-162.683 178.299-255.993 177.468-113.437-0.992-191.995-106.621-191.995-223.994 0-62.942 5.472-87.998 63.998-176.988l351.991-350.807c29.919-30.527 30.047-31.999 63.998 0.96l351.991 347.831c39.909 43.434 64.371 101.614 64.371 165.506 0 4.749-0.135 9.465-0.401 14.147l0.030-0.649c0 117.373-81.565 223.994-191.995 223.994z" />
<glyph unicode="&#xe953;" d="M687.995 707.866c-63.998 0-137.884-71.391-175.995-122.397-39.135 52.862-111.997 122.973-175.995 122.397-77.982-0.704-131.997-73.598-131.997-154.492 0-43.423 3.776-60.798 43.999-122.077l242.010-209.915c20.576-21.056 20.672-21.983 43.999 0.672l242.010 207.995c27.443 29.978 44.256 70.082 44.256 114.112 0 3.286-0.094 6.55-0.279 9.788l0.020-0.449c-0.032 80.798-56.095 154.364-132.029 154.364z" />
<glyph unicode="&#xe954;" d="M896 512c0-159.057-171.922-288-384-288s-384 128.942-384 288c0 159.057 171.922 288 384 288s384-128.942 384-288z" />
<glyph unicode="&#xe955;" d="M512 64c-33.869 0.087-66.987 3.029-99.206 8.596l3.494-0.5-224.287-136.096v226.592c-114.23 76.426-189.154 203.871-191.994 348.981l-0.006 0.426c0 247.424 229.216 448 512 448s512-200.576 512-448-229.216-448-512-448zM512 896c-247.424 0-448-171.936-448-384 3.82-134.965 79.17-251.501 189.336-313.405l1.864-0.962-2.016-148.447 150.624 90.56c32.474-7.356 69.804-11.629 108.11-11.744h0.081c247.424 0 448 171.936 448 384s-200.576 384-448 384zM768 448c-35.346 0-64 28.654-64 64s28.654 64 64 64c35.346 0 64-28.654 64-64v0c0-35.346-28.654-64-64-64v0zM512 448c-35.346 0-64 28.654-64 64s28.654 64 64 64c35.346 0 64-28.654 64-64v0c0-35.346-28.654-64-64-64v0zM256 448c-35.346 0-64 28.654-64 64s28.654 64 64 64c35.346 0 64-28.654 64-64v0c0-35.346-28.654-64-64-64v0z" />
<glyph unicode="&#xe956;" glyph-name="register" d="M346.839 68.129c0-72.968 73.959-132.129 165.161-132.129s165.161 59.161 165.161 132.129h-330.323zM487.886 960c-198.194 0-338.746-160.901-338.746-360.052v-274.168l-132.625-224.619h990.968l-132.658 226.072v270.039c0 199.151-140.387 362.728-338.746 362.728h-48.161z" />
<glyph unicode="&#xe958;" glyph-name="invitecode" d="M896-64h-768c-70.692 0-128 57.308-128 128v0 576l512 320 512-320v-576c0-70.692-57.308-128-128-128v0zM128 0h768c5.067 0.043 9.976 0.624 14.702 1.688l-0.462-0.087-293.984 294.080-104.256-71.68-104.256 71.68-293.984-294.080c4.264-0.976 9.173-1.558 14.21-1.6h0.030zM64 64c0.176-6.689 1.334-13.048 3.334-19.020l-0.134 0.46 287.073 287.040-290.272 199.68v-468.16zM960 608l-448.64 277.44-447.36-277.44 448-309.12zM960 532.16l-290.113-199.68 287.072-287.040c1.817 5.526 2.92 11.892 3.039 18.5l0.001 0.060v468.16z" />
<glyph unicode="&#xe959;" d="M208 800h607.999c35.346 0 64-28.654 64-64v-384c0-35.346-28.654-64-64-64h-607.999c-35.346 0-64 28.654-64 64v384c0 35.346 28.654 64 64 64z" />
<glyph unicode="&#xe95a;" d="M848 128h-308.416l-299.583-192v192h-64c-3.414-0.279-7.39-0.437-11.404-0.437-82.127 0-148.704 66.577-148.704 148.704 0 1.989 0.039 3.967 0.116 5.937l-0.009-0.284v508.479c0.272 93.726 76.315 169.601 170.079 169.601 0.202 0 0.405 0 0.607-0.001h650.656c0.171 0 0.374 0.001 0.576 0.001 93.764 0 169.806-75.875 170.079-169.575v-508.506c0.069-1.686 0.107-3.665 0.107-5.654 0-82.127-66.577-148.704-148.704-148.704-4.014 0-7.99 0.159-11.922 0.471l0.519-0.032zM848 192c51.169 4.362 91.637 44.831 95.974 95.611l0.026 0.389v511.999c-4.362 51.169-44.831 91.637-95.611 95.974l-0.389 0.026h-671.999c-51.169-4.362-91.637-44.831-95.974-95.611l-0.026-0.389v-511.999c4.362-51.169 44.831-91.637 95.611-95.974l0.389-0.026h128v-128l192 128h352zM240 704h543.999c17.672 0 32-14.327 32-32s-14.327-32-32-32v0h-543.999c-17.672 0-32 14.327-32 32s14.327 32 32 32v0zM240 448h543.999c17.672 0 32-14.327 32-32s-14.327-32-32-32v0h-543.999c-17.672 0-32 14.327-32 32s14.327 32 32 32v0z" />
<glyph unicode="&#xe965;" glyph-name="undo" d="M500.053 872.96c-230.4 0-414.72-186.027-414.72-414.72s186.027-414.72 414.72-414.72 414.72 186.027 414.72 414.72-186.027 414.72-414.72 414.72zM482.987 398.507h-8.533v-117.76c0-5.12-3.413-6.827-6.827-3.413l-211.627 184.32c-3.413 3.413-3.413 10.24 0 13.653l211.627 186.027c3.413 3.413 6.827 1.707 6.827-3.413v-109.227c148.48-17.067 266.24-141.653 269.653-295.253-52.907 87.040-150.187 145.067-261.12 145.067z" />
<glyph unicode="&#xe97c;" glyph-name="loading" d="M512 656.904c-32.964 0-59.686 26.724-59.686 59.686v179.060c0 32.964 26.722 59.686 59.686 59.686 32.962 0 59.688-26.722 59.688-59.686v-179.060c0-32.964-26.726-59.686-59.688-59.686zM512-36.956c-20.602 0-37.304 16.702-37.304 37.304v179.060c0 20.602 16.702 37.304 37.304 37.304 20.604 0 37.304-16.704 37.304-37.304v-179.060c0-20.602-16.7-37.304-37.304-37.304zM377.756 624.64c-19.34 0-38.146 10.034-48.512 27.988l-89.53 155.070c-15.452 26.764-6.282 60.986 20.482 76.438 26.762 15.45 60.986 6.284 76.438-20.482l89.53-155.072c15.452-26.764 6.282-60.986-20.482-76.438-8.81-5.084-18.432-7.504-27.926-7.504zM735.856 26.744c-11.602 0-22.886 6.022-29.108 16.792l-89.53 155.070c-9.27 16.056-3.77 36.592 12.29 45.864 16.056 9.264 36.59 3.77 45.864-12.292l89.532-155.068c9.27-16.058 3.768-36.592-12.292-45.864-5.286-3.048-11.060-4.502-16.756-4.502zM279.344 530.060c-8.86 0-17.838 2.256-26.064 7.006l-155.072 89.53c-24.978 14.422-33.538 46.362-19.116 71.342 14.42 24.978 46.364 33.538 71.342 19.116l155.070-89.53c24.98-14.422 33.538-46.362 19.116-71.34-9.668-16.756-27.226-26.124-45.276-26.124zM899.648 194.326c-5.064 0-10.196 1.29-14.894 4.004l-155.068 89.53c-14.274 8.24-19.164 26.494-10.924 40.768 8.242 14.276 26.496 19.166 40.766 10.924l155.070-89.532c14.274-8.24 19.164-26.492 10.924-40.766-5.53-9.574-15.562-14.928-25.874-14.928zM243.41 399.504h-179.060c-26.784 0-48.496 21.712-48.496 48.496s21.712 48.496 48.496 48.496h179.060c26.784 0 48.496-21.712 48.496-48.496s-21.712-48.496-48.496-48.496zM959.65 418.156c-0.002 0 0 0 0 0h-179.060c-16.482 0.002-29.844 13.364-29.844 29.844s13.364 29.844 29.844 29.844c0.002 0 0 0 0 0h179.060c16.482 0 29.844-13.362 29.844-29.844 0-16.48-13.364-29.844-29.844-29.844zM124.366 179.402c-15.472 0-30.518 8.028-38.81 22.39-12.362 21.41-5.026 48.79 16.384 61.148l155.072 89.532c21.41 12.368 48.79 5.028 61.15-16.384 12.362-21.412 5.026-48.79-16.384-61.15l-155.072-89.53c-7.050-4.070-14.748-6.006-22.34-6.006zM744.632 552.448c-10.314 0-20.346 5.352-25.874 14.926-8.24 14.274-3.35 32.526 10.924 40.768l155.070 89.528c14.272 8.236 32.526 3.352 40.768-10.922 8.24-14.274 3.35-32.526-10.924-40.768l-155.070-89.528c-4.7-2.714-9.83-4.004-14.894-4.004zM288.136 19.284c-6.962 0-14.016 1.774-20.48 5.504-19.626 11.332-26.35 36.428-15.020 56.054l89.53 155.070c11.33 19.628 36.426 26.352 56.054 15.022 19.626-11.332 26.35-36.43 15.020-56.054l-89.53-155.072c-7.598-13.166-21.392-20.524-35.574-20.524zM646.266 650.758c-5.062 0-10.196 1.29-14.894 4.002-14.274 8.242-19.164 26.494-10.924 40.766l89.534 155.070c8.24 14.274 26.492 19.166 40.766 10.922 14.274-8.242 19.164-26.494 10.924-40.766l-89.532-155.070c-5.53-9.57-15.56-14.924-25.874-14.924z" />
<glyph unicode="&#xea15;" glyph-name="play" d="M512 960c-282.77 0-512-229.23-512-512s229.23-512 512-512 512 229.23 512 512-229.23 512-512 512zM512 32c-229.75 0-416 186.25-416 416s186.25 416 416 416 416-186.25 416-416-186.25-416-416-416zM384 672l384-224-384-224z" />
<glyph unicode="&#xea16;" glyph-name="pause" d="M512 960c-282.77 0-512-229.23-512-512s229.23-512 512-512 512 229.23 512 512-229.23 512-512 512zM512 32c-229.75 0-416 186.25-416 416s186.25 416 416 416 416-186.25 416-416-186.25-416-416-416zM320 640h128v-384h-128zM576 640h128v-384h-128z" />
</font>
</defs>
</svg>
